<svg width="1618" height="589" viewBox="0 0 1618 589" fill="none" xmlns="http://www.w3.org/2000/svg">
<g clip-path="url(#clip0_3638_33)">
<path d="M399.592 81.0084C416.503 27.4342 475.139 -2.72347 530.651 13.5968C537.196 15.521 543.404 18.0042 549.235 20.9769C542.267 30.4649 534.297 41.6331 526.754 52.3024C524.342 51.2737 521.841 50.3702 519.256 49.6086C484.331 39.3194 447.384 58.3017 436.723 92.0075C435.519 95.814 434.706 99.6454 434.258 103.462C432.718 105.634 431.475 107.935 430.49 110.215L430.46 110.286L430.431 110.357C429.356 113.008 427.825 118.623 426.927 123.704C426.475 126.265 426.113 129.066 426.125 131.512C426.13 132.709 426.224 134.17 426.609 135.605C426.926 136.784 427.806 139.336 430.446 141.018L430.442 141.023C430.479 141.046 430.518 141.066 430.555 141.089C430.578 141.103 430.6 141.121 430.623 141.135L430.625 141.132C433.193 142.707 435.928 142.765 438.024 142.289C439.507 141.953 440.768 141.342 441.744 140.758C449.728 155.104 463.342 166.531 480.655 171.659C515.579 181.947 552.525 162.967 563.186 129.261C568.014 113.998 566.623 98.3343 560.411 84.8076C563.489 80.9135 566.651 76.9007 569.798 72.9094C575.431 65.7647 581.026 58.6976 586.104 52.4271C603.945 77.0622 610.287 109.077 600.501 140.082C583.59 193.657 524.953 223.815 469.441 207.494C413.93 191.173 382.682 134.583 399.592 81.0084Z" fill="white"/>
<path d="M583.564 17.1442C583.197 16.7895 582.645 16.4347 582.278 15.9025C574.741 9.69349 566.102 10.0483 565.734 10.7579C551.58 28.8527 524.008 68.4127 510.957 87.0396C500.48 101.941 490.922 118.262 479.341 132.276C476.033 136.179 475.114 136.179 472.724 131.212C470.886 127.309 469.967 122.874 468.496 118.617C465.555 110.101 464.452 96.2643 451.586 99.2801C444.417 101.054 440.005 106.553 437.248 112.94C435.594 117.02 431.734 133.163 434.675 134.937C436.88 136.357 440.74 132.276 442.579 130.325C445.152 127.664 446.806 124.648 449.38 121.987C449.564 122.697 449.931 123.584 450.115 124.293C451.034 129.083 451.586 133.873 453.056 138.485C456.365 150.194 467.761 158.177 479.158 157.644C483.753 157.29 488.532 155.516 492.76 151.968C508.752 138.131 521.435 120.213 535.037 104.247C549.375 87.5718 577.866 49.6084 592.571 33.1102C592.939 32.4006 592.204 25.1272 583.564 17.1442Z" fill="white"/>
<path d="M710.955 78.3634C703.513 74.4643 695.007 72.4121 685.651 72.4121C676.295 72.4121 667.79 74.4643 660.347 78.3634C653.118 82.2625 647.376 87.8034 643.124 94.7808C638.871 101.758 636.957 109.762 636.957 118.791C636.957 127.821 639.083 135.824 643.336 142.802C647.589 149.779 653.33 155.115 660.56 159.219C667.79 163.118 676.295 165.17 686.076 165.17C695.433 165.17 703.938 163.118 711.168 159.219C718.397 155.32 724.139 149.779 728.391 142.802C732.432 135.824 734.558 127.821 734.558 118.791C734.558 109.762 732.432 101.758 728.391 94.7808C724.139 87.8034 718.397 82.2625 710.955 78.3634ZM702.45 129.668C700.748 132.746 698.622 135.209 695.858 137.056C693.093 138.903 689.691 139.723 685.864 139.723C682.036 139.723 678.421 138.903 675.445 137.056C672.468 135.209 670.129 132.746 668.427 129.668C666.726 126.59 665.876 122.896 665.876 118.791C665.876 114.687 666.726 110.993 668.427 107.915C670.129 104.836 672.468 102.374 675.232 100.527C678.209 98.6799 681.611 97.8591 685.226 97.8591C689.053 97.8591 692.456 98.6799 695.22 100.527C698.197 102.374 700.536 104.836 702.024 107.915C703.725 110.993 704.576 114.687 704.576 118.791C705.001 122.896 704.151 126.59 702.45 129.668Z" fill="white"/>
<path d="M825.993 77.953C819.826 74.2591 812.384 72.4121 803.878 72.4121C796.223 72.4121 790.057 74.2591 784.741 77.953C781.764 80.0052 779.425 82.673 777.299 85.9565L776.235 74.6695H749.23V198.416H777.724V152.447C779.638 155.32 781.977 157.577 784.741 159.63C789.844 163.323 796.223 165.17 803.878 165.17C812.384 165.17 819.826 163.323 825.993 159.63C832.159 155.936 837.05 150.6 840.24 143.623C843.642 136.645 845.13 128.436 845.13 118.791C845.13 109.146 843.429 100.937 840.24 93.9599C836.837 86.9825 832.159 81.8521 825.993 77.953ZM812.809 129.668C811.108 132.746 808.769 135.414 806.005 137.056C803.241 138.903 800.051 139.723 796.223 139.723C792.609 139.723 789.419 138.903 786.442 137.056C783.678 135.209 781.339 132.746 779.85 129.668C778.362 126.59 777.511 122.896 777.511 118.791C777.511 114.687 778.362 111.198 779.85 107.915C781.339 104.631 783.678 102.169 786.442 100.527C789.206 98.6799 792.609 97.8591 796.223 97.8591C799.838 97.8591 803.241 98.6799 806.005 100.527C808.769 102.374 811.108 104.836 812.597 107.915C814.085 110.993 814.936 114.687 814.936 118.791C815.361 122.896 814.51 126.384 812.809 129.668Z" fill="white"/>
<path d="M936.778 77.953C930.611 74.2591 923.169 72.4121 914.664 72.4121C907.009 72.4121 900.842 74.2591 895.526 77.953C892.549 80.0052 890.21 82.673 888.084 85.9565L887.021 74.6695H860.016V198.416H888.509V152.447C890.423 155.32 892.762 157.577 895.526 159.63C900.63 163.323 907.009 165.17 914.664 165.17C923.169 165.17 930.611 163.323 936.778 159.63C942.944 155.936 947.835 150.6 951.025 143.623C954.427 136.645 955.915 128.436 955.915 118.791C955.915 109.146 954.214 100.937 951.025 93.9599C947.623 86.9825 942.944 81.8521 936.778 77.953ZM923.807 129.668C922.106 132.746 919.767 135.414 917.003 137.056C914.238 138.903 911.049 139.723 907.221 139.723C903.606 139.723 900.417 138.903 897.44 137.056C894.676 135.209 892.337 132.746 890.848 129.668C889.36 126.59 888.509 122.896 888.509 118.791C888.509 114.687 889.36 111.198 890.848 107.915C892.337 104.631 894.676 102.169 897.44 100.527C900.204 98.6799 903.606 97.8591 907.221 97.8591C910.836 97.8591 914.238 98.6799 917.003 100.527C919.767 102.374 922.106 104.836 923.594 107.915C925.083 110.993 925.933 114.687 925.933 118.791C926.359 122.896 925.508 126.384 923.807 129.668Z" fill="white"/>
<path d="M985.895 32.1895C981.642 32.1895 977.815 33.626 974.625 36.7042C971.435 39.7825 969.734 43.4764 969.734 47.786C969.734 51.8903 971.435 55.5842 974.625 58.6625C977.815 61.7408 981.642 63.3825 985.895 63.3825C990.36 63.3825 993.975 61.7408 997.165 58.6625C1000.35 55.5842 1001.84 51.8903 1001.84 47.786C1001.84 43.4764 1000.35 39.7825 997.165 36.7042C993.975 33.626 990.148 32.1895 985.895 32.1895Z" fill="white"/>
<path d="M999.931 74.6694H971.438V163.118H999.931V74.6694Z" fill="white"/>
<path d="M1096.89 91.9078C1093.49 85.7512 1088.6 81.0312 1082.01 77.5425C1075.42 74.0538 1067.34 72.4121 1057.77 72.4121C1050.75 72.4121 1044.59 73.4382 1039.27 75.4904C1033.95 77.5425 1029.49 80.4156 1026.09 83.9043C1022.47 87.393 1019.71 91.2921 1017.58 95.8069L1042.67 103.81C1044.58 101.143 1046.71 99.0904 1049.26 97.6539C1051.81 96.2173 1054.79 95.3965 1058.41 95.3965C1062.87 95.3965 1066.06 96.4225 1068.4 98.2695C1070.74 100.116 1072.02 102.99 1072.87 106.478C1073.08 107.71 1073.29 108.941 1073.5 110.377H1051.39C1040.12 110.377 1031.4 112.635 1025.23 117.15C1019.07 121.664 1015.88 128.642 1015.88 137.876C1015.88 146.496 1018.86 153.063 1024.81 157.783C1030.76 162.503 1039.27 164.76 1050.11 164.76C1060.75 164.76 1068.61 161.476 1073.72 155.115C1073.93 154.704 1074.35 154.294 1074.57 153.883L1074.99 162.708H1101.78L1102.21 113.456C1102 105.247 1100.3 98.0643 1096.89 91.9078ZM1071.59 136.029C1070.1 138.492 1067.98 140.544 1065.42 141.981C1062.87 143.417 1059.68 144.238 1056.28 144.238C1052.67 144.238 1049.9 143.623 1047.77 142.391C1045.86 141.16 1044.8 139.518 1044.8 137.261C1044.8 134.388 1046.07 132.13 1048.84 130.489C1051.39 128.847 1055.85 128.026 1062.02 128.026H1073.93C1073.93 130.899 1073.08 133.567 1071.59 136.029Z" fill="white"/>
<path d="M1145.16 140.955H1119.64V165.581H1145.16V140.955Z" fill="white"/>
</g>
<path d="M0 366.545H36.3636V402.909H0V366.545ZM36.3636 366.545H72.7273V402.909H36.3636V366.545ZM109.091 366.545H145.455V402.909H109.091V366.545ZM72.7273 402.909H109.091V439.273H72.7273V402.909ZM36.3636 439.273H72.7273V475.636H36.3636V439.273ZM0 475.636H36.3636V512H0V475.636ZM72.7273 475.636H109.091V512H72.7273V475.636ZM109.091 475.636H145.455V512H109.091V475.636ZM181.641 330.182H218.004V366.545H181.641V330.182ZM181.641 366.545H218.004V402.909H181.641V366.545ZM181.641 402.909H218.004V439.273H181.641V402.909ZM181.641 439.273H218.004V475.636H181.641V439.273ZM181.641 475.636H218.004V512H181.641V475.636ZM218.004 402.909H254.368V439.273H218.004V402.909ZM254.368 366.545H290.732V402.909H254.368V366.545ZM254.368 439.273H290.732V475.636H254.368V439.273ZM254.368 475.636H290.732V512H254.368V475.636Z" fill="#FF0100"/>
<path d="M326.953 457.455H381.499V512H326.953V457.455ZM326.953 402.909H381.499V457.455H326.953V402.909ZM326.953 348.364H381.499V402.909H326.953V348.364ZM326.953 293.818H381.499V348.364H326.953V293.818ZM381.499 239.273H436.044V293.818H381.499V239.273ZM436.044 293.818H490.589V348.364H436.044V293.818ZM436.044 348.364H490.589V402.909H436.044V348.364ZM436.044 402.909H490.589V457.455H436.044V402.909ZM436.044 457.455H490.589V512H436.044V457.455ZM381.499 348.364H436.044V402.909H381.499V348.364ZM544.922 293.818H599.467V348.364H544.922V293.818ZM544.922 348.364H599.467V402.909H544.922V348.364ZM544.922 402.909H599.467V457.455H544.922V402.909ZM544.922 457.455H599.467V512H544.922V457.455ZM599.467 293.818H654.013V348.364H599.467V293.818ZM762.944 293.818H817.489V348.364H762.944V293.818ZM708.398 348.364H762.944V402.909H708.398V348.364ZM708.398 402.909H762.944V457.455H708.398V402.909ZM762.944 457.455H817.489V512H762.944V457.455ZM817.489 293.818H872.035V348.364H817.489V293.818ZM817.489 457.455H872.035V512H817.489V457.455ZM1035.46 293.818H1090V348.364H1035.46V293.818ZM1035.46 348.364H1090V402.909H1035.46V348.364ZM1035.46 402.909H1090V457.455H1035.46V402.909ZM1035.46 457.455H1090V512H1035.46V457.455ZM980.913 293.818H1035.46V348.364H980.913V293.818ZM980.913 457.455H1035.46V512H980.913V457.455ZM926.367 348.364H980.913V402.909H926.367V348.364ZM926.367 402.909H980.913V457.455H926.367V402.909ZM1253.43 239.273H1307.97V293.818H1253.43V239.273ZM1253.43 293.818H1307.97V348.364H1253.43V293.818ZM1253.43 348.364H1307.97V402.909H1253.43V348.364ZM1253.43 402.909H1307.97V457.455H1253.43V402.909ZM1253.43 457.455H1307.97V512H1253.43V457.455ZM1198.88 293.818H1253.43V348.364H1198.88V293.818ZM1144.34 348.364H1198.88V402.909H1144.34V348.364ZM1144.34 402.909H1198.88V457.455H1144.34V402.909ZM1198.88 457.455H1253.43V512H1198.88V457.455ZM1416.85 293.818H1471.4V348.364H1416.85V293.818ZM1471.4 348.364H1525.94V402.909H1471.4V348.364ZM1362.3 348.364H1416.85V402.909H1362.3V348.364ZM1471.4 402.909H1525.94V457.455H1471.4V402.909ZM1416.85 402.909H1471.4V457.455H1416.85V402.909ZM1362.3 402.909H1416.85V457.455H1362.3V402.909ZM1362.3 457.455H1416.85V512H1362.3V457.455ZM1416.85 512H1471.4V566.545H1416.85V512Z" fill="white"/>
<defs>
<clipPath id="clip0_3638_33">
<rect width="750.162" height="236" fill="white" transform="translate(395)"/>
</clipPath>
</defs>
</svg>
