<svg width="2507" height="629" viewBox="0 0 2507 629" fill="none" xmlns="http://www.w3.org/2000/svg">
<g filter="url(#filter0_d_3580_19)">
<mask id="path-1-outside-1_3580_19" maskUnits="userSpaceOnUse" x="224" y="109" width="2183" height="199" fill="black">
<rect fill="white" x="224" y="109" width="2183" height="199"/>
<path d="M229.6 303V114.52H368.8C388.853 114.52 403.467 118.573 412.64 126.68C421.813 134.573 426.4 144.173 426.4 155.48V165.08C426.4 173.827 424.48 181.08 420.64 186.84C417.013 192.387 413.067 196.333 408.8 198.68C418.187 201.667 425.653 206.893 431.2 214.36C436.747 221.613 439.52 231.213 439.52 243.16V248.92C439.52 255.32 438.773 261.72 437.28 268.12C435.787 274.52 432.907 280.387 428.64 285.72C424.587 290.84 418.72 295 411.04 298.2C403.573 301.4 393.76 303 381.6 303H229.6ZM271.84 190.04H362.08C369.547 190.253 375.093 188.44 378.72 184.6C382.347 180.547 384.16 175.533 384.16 169.56V166.36C384.16 161.453 382.453 156.76 379.04 152.28C375.627 147.587 369.227 145.24 359.84 145.24H271.84V190.04ZM271.84 272.28H372.64C380.747 272.28 386.827 270.253 390.88 266.2C395.147 262.147 397.28 256.6 397.28 249.56V243.8C397.28 237.187 394.827 231.853 389.92 227.8C385.013 223.533 376.907 221.4 365.6 221.4H271.84V272.28ZM458.688 303L552.448 114.84H615.488L708.928 303H659.648L640.768 262.36H526.208L505.408 303H458.688ZM537.728 231H628.928L585.088 143.64H581.888L537.728 231ZM760.483 303L760.163 145.24H676.963V114.52H886.243V145.24H802.723V303H760.483ZM982.67 303L982.35 145.24H899.15V114.52H1108.43V145.24H1024.91V303H982.67ZM1140.54 303L1143.74 277.4V114.84H1185.98V272.28H1318.46L1331.26 299.48C1331.26 300.333 1328.38 301.187 1322.62 302.04C1316.86 302.68 1306.94 303 1292.86 303H1140.54ZM1359.91 303V114.84H1558.95V145.56H1402.15V189.72H1521.83V221.4H1402.15V272.28H1560.23L1573.03 299.48C1573.03 300.333 1570.15 301.187 1564.39 302.04C1558.63 302.68 1548.71 303 1534.63 303H1359.91ZM1640.75 303C1626.25 303 1615.58 302.36 1608.75 301.08C1601.93 299.8 1598.51 298.307 1598.51 296.6L1611.31 268.76C1616.22 269.613 1628.38 270.467 1647.79 271.32C1667.42 271.96 1694.3 272.28 1728.43 272.28H1734.51C1743.69 272.28 1750.19 270.68 1754.03 267.48C1757.87 264.067 1759.79 258.413 1759.79 250.52V244.12C1759.79 236.653 1758.19 231.32 1754.99 228.12C1752.01 224.92 1745.18 223.32 1734.51 223.32H1660.27C1638.73 223.32 1623.05 219.373 1613.23 211.48C1603.42 203.373 1598.51 190.253 1598.51 172.12V167C1598.51 157.613 1600.22 148.973 1603.63 141.08C1607.26 133.187 1613.34 126.893 1621.87 122.2C1630.41 117.293 1642.14 114.84 1657.07 114.84H1744.11C1758.62 114.84 1770.35 115.587 1779.31 117.08C1788.27 118.573 1792.75 120.173 1792.75 121.88L1786.35 148.76C1780.81 148.12 1768.22 147.48 1748.59 146.84C1728.97 145.987 1702.62 145.56 1669.55 145.56L1666.03 145.24C1656.22 145.24 1649.61 147.267 1646.19 151.32C1642.78 155.16 1640.97 160.067 1640.75 166.04V171.48C1640.75 178.52 1642.67 183.853 1646.51 187.48C1650.57 190.893 1657.18 192.6 1666.35 192.6H1737.39C1751.05 192.6 1762.67 193.987 1772.27 196.76C1781.87 199.533 1789.23 204.653 1794.35 212.12C1799.47 219.373 1802.03 230.147 1802.03 244.44V249.56C1802.03 265.56 1797.87 278.467 1789.55 288.28C1781.45 298.093 1767.26 303 1746.99 303H1640.75ZM1846.79 303V114.84H1889.03V192.92H2014.47V114.84H2056.71V303H2014.47V223.64H1889.03V303H1846.79ZM2108.04 303V114.84H2150.28V303H2108.04ZM2204.68 303V140.44L2201.48 114.52H2343.24C2356.89 114.52 2367.56 116.333 2375.24 119.96C2383.13 123.587 2388.89 128.387 2392.52 134.36C2396.36 140.12 2398.81 146.307 2399.88 152.92C2400.94 159.533 2401.48 165.827 2401.48 171.8V190.68C2401.48 195.587 2400.73 201.133 2399.24 207.32C2397.74 213.293 2394.97 219.16 2390.92 224.92C2386.86 230.467 2381 235.16 2373.32 239C2365.64 242.627 2355.61 244.44 2343.24 244.44H2310.6C2297.16 244.44 2284.57 244.12 2272.84 243.48C2261.32 242.84 2252.68 242.307 2246.92 241.88V303H2204.68ZM2246.92 213.72H2333.96C2343.56 213.72 2350.17 211.373 2353.8 206.68C2357.42 201.987 2359.24 196.333 2359.24 189.72V169.56C2359.24 162.733 2357.42 156.973 2353.8 152.28C2350.17 147.587 2343.66 145.24 2334.28 145.24H2246.92V213.72Z"/>
</mask>
<path d="M229.6 303V114.52H368.8C388.853 114.52 403.467 118.573 412.64 126.68C421.813 134.573 426.4 144.173 426.4 155.48V165.08C426.4 173.827 424.48 181.08 420.64 186.84C417.013 192.387 413.067 196.333 408.8 198.68C418.187 201.667 425.653 206.893 431.2 214.36C436.747 221.613 439.52 231.213 439.52 243.16V248.92C439.52 255.32 438.773 261.72 437.28 268.12C435.787 274.52 432.907 280.387 428.64 285.72C424.587 290.84 418.72 295 411.04 298.2C403.573 301.4 393.76 303 381.6 303H229.6ZM271.84 190.04H362.08C369.547 190.253 375.093 188.44 378.72 184.6C382.347 180.547 384.16 175.533 384.16 169.56V166.36C384.16 161.453 382.453 156.76 379.04 152.28C375.627 147.587 369.227 145.24 359.84 145.24H271.84V190.04ZM271.84 272.28H372.64C380.747 272.28 386.827 270.253 390.88 266.2C395.147 262.147 397.28 256.6 397.28 249.56V243.8C397.28 237.187 394.827 231.853 389.92 227.8C385.013 223.533 376.907 221.4 365.6 221.4H271.84V272.28ZM458.688 303L552.448 114.84H615.488L708.928 303H659.648L640.768 262.36H526.208L505.408 303H458.688ZM537.728 231H628.928L585.088 143.64H581.888L537.728 231ZM760.483 303L760.163 145.24H676.963V114.52H886.243V145.24H802.723V303H760.483ZM982.67 303L982.35 145.24H899.15V114.52H1108.43V145.24H1024.91V303H982.67ZM1140.54 303L1143.74 277.4V114.84H1185.98V272.28H1318.46L1331.26 299.48C1331.26 300.333 1328.38 301.187 1322.62 302.04C1316.86 302.68 1306.94 303 1292.86 303H1140.54ZM1359.91 303V114.84H1558.95V145.56H1402.15V189.72H1521.83V221.4H1402.15V272.28H1560.23L1573.03 299.48C1573.03 300.333 1570.15 301.187 1564.39 302.04C1558.63 302.68 1548.71 303 1534.63 303H1359.91ZM1640.75 303C1626.25 303 1615.58 302.36 1608.75 301.08C1601.93 299.8 1598.51 298.307 1598.51 296.6L1611.31 268.76C1616.22 269.613 1628.38 270.467 1647.79 271.32C1667.42 271.96 1694.3 272.28 1728.43 272.28H1734.51C1743.69 272.28 1750.19 270.68 1754.03 267.48C1757.87 264.067 1759.79 258.413 1759.79 250.52V244.12C1759.79 236.653 1758.19 231.32 1754.99 228.12C1752.01 224.92 1745.18 223.32 1734.51 223.32H1660.27C1638.73 223.32 1623.05 219.373 1613.23 211.48C1603.42 203.373 1598.51 190.253 1598.51 172.12V167C1598.51 157.613 1600.22 148.973 1603.63 141.08C1607.26 133.187 1613.34 126.893 1621.87 122.2C1630.41 117.293 1642.14 114.84 1657.07 114.84H1744.11C1758.62 114.84 1770.35 115.587 1779.31 117.08C1788.27 118.573 1792.75 120.173 1792.75 121.88L1786.35 148.76C1780.81 148.12 1768.22 147.48 1748.59 146.84C1728.97 145.987 1702.62 145.56 1669.55 145.56L1666.03 145.24C1656.22 145.24 1649.61 147.267 1646.19 151.32C1642.78 155.16 1640.97 160.067 1640.75 166.04V171.48C1640.75 178.52 1642.67 183.853 1646.51 187.48C1650.57 190.893 1657.18 192.6 1666.35 192.6H1737.39C1751.05 192.6 1762.67 193.987 1772.27 196.76C1781.87 199.533 1789.23 204.653 1794.35 212.12C1799.47 219.373 1802.03 230.147 1802.03 244.44V249.56C1802.03 265.56 1797.87 278.467 1789.55 288.28C1781.45 298.093 1767.26 303 1746.99 303H1640.75ZM1846.79 303V114.84H1889.03V192.92H2014.47V114.84H2056.71V303H2014.47V223.64H1889.03V303H1846.79ZM2108.04 303V114.84H2150.28V303H2108.04ZM2204.68 303V140.44L2201.48 114.52H2343.24C2356.89 114.52 2367.56 116.333 2375.24 119.96C2383.13 123.587 2388.89 128.387 2392.52 134.36C2396.36 140.12 2398.81 146.307 2399.88 152.92C2400.94 159.533 2401.48 165.827 2401.48 171.8V190.68C2401.48 195.587 2400.73 201.133 2399.24 207.32C2397.74 213.293 2394.97 219.16 2390.92 224.92C2386.86 230.467 2381 235.16 2373.32 239C2365.64 242.627 2355.61 244.44 2343.24 244.44H2310.6C2297.16 244.44 2284.57 244.12 2272.84 243.48C2261.32 242.84 2252.68 242.307 2246.92 241.88V303H2204.68ZM2246.92 213.72H2333.96C2343.56 213.72 2350.17 211.373 2353.8 206.68C2357.42 201.987 2359.24 196.333 2359.24 189.72V169.56C2359.24 162.733 2357.42 156.973 2353.8 152.28C2350.17 147.587 2343.66 145.24 2334.28 145.24H2246.92V213.72Z" fill="#A7A7A7" fill-opacity="0.2" shape-rendering="crispEdges"/>
<path d="M229.6 303H224.6V308H229.6V303ZM229.6 114.52V109.52H224.6V114.52H229.6ZM412.64 126.68L409.329 130.427L409.354 130.449L409.379 130.47L412.64 126.68ZM420.64 186.84L416.48 184.066L416.467 184.085L416.455 184.104L420.64 186.84ZM408.8 198.68L406.39 194.299L396.184 199.913L407.284 203.445L408.8 198.68ZM431.2 214.36L427.186 217.342L427.207 217.37L427.228 217.397L431.2 214.36ZM437.28 268.12L432.411 266.984L432.411 266.984L437.28 268.12ZM428.64 285.72L424.736 282.597L424.728 282.606L424.72 282.616L428.64 285.72ZM411.04 298.2L409.117 293.585L409.094 293.594L409.07 293.604L411.04 298.2ZM271.84 190.04H266.84V195.04H271.84V190.04ZM362.08 190.04L362.223 185.042L362.151 185.04H362.08V190.04ZM378.72 184.6L382.355 188.033L382.401 187.984L382.446 187.934L378.72 184.6ZM379.04 152.28L374.996 155.221L375.029 155.266L375.063 155.31L379.04 152.28ZM271.84 145.24V140.24H266.84V145.24H271.84ZM271.84 272.28H266.84V277.28H271.84V272.28ZM390.88 266.2L387.436 262.575L387.39 262.619L387.344 262.664L390.88 266.2ZM389.92 227.8L386.639 231.573L386.687 231.615L386.736 231.655L389.92 227.8ZM271.84 221.4V216.4H266.84V221.4H271.84ZM229.6 303H234.6V114.52H229.6H224.6V303H229.6ZM229.6 114.52V119.52H368.8V114.52V109.52H229.6V114.52ZM368.8 114.52V119.52C388.362 119.52 401.498 123.506 409.329 130.427L412.64 126.68L415.951 122.933C405.436 113.641 389.345 109.52 368.8 109.52V114.52ZM412.64 126.68L409.379 130.47C417.536 137.489 421.4 145.742 421.4 155.48H426.4H431.4C431.4 142.605 426.09 131.657 415.901 122.89L412.64 126.68ZM426.4 155.48H421.4V165.08H426.4H431.4V155.48H426.4ZM426.4 165.08H421.4C421.4 173.099 419.644 179.32 416.48 184.066L420.64 186.84L424.8 189.613C429.316 182.84 431.4 174.554 431.4 165.08H426.4ZM420.64 186.84L416.455 184.104C413.122 189.201 409.728 192.463 406.39 194.299L408.8 198.68L411.21 203.061C416.406 200.203 420.904 195.572 424.825 189.576L420.64 186.84ZM408.8 198.68L407.284 203.445C415.734 206.133 422.303 210.768 427.186 217.342L431.2 214.36L435.214 211.378C429.004 203.019 420.639 197.2 410.316 193.915L408.8 198.68ZM431.2 214.36L427.228 217.397C431.928 223.543 434.52 231.972 434.52 243.16H439.52H444.52C444.52 230.455 441.566 219.684 435.172 211.323L431.2 214.36ZM439.52 243.16H434.52V248.92H439.52H444.52V243.16H439.52ZM439.52 248.92H434.52C434.52 254.927 433.82 260.946 432.411 266.984L437.28 268.12L442.149 269.256C443.727 262.494 444.52 255.713 444.52 248.92H439.52ZM437.28 268.12L432.411 266.984C431.094 272.629 428.555 277.822 424.736 282.597L428.64 285.72L432.544 288.843C437.258 282.951 440.48 276.411 442.149 269.256L437.28 268.12ZM428.64 285.72L424.72 282.616C421.318 286.913 416.224 290.623 409.117 293.585L411.04 298.2L412.963 302.815C421.216 299.377 427.855 294.767 432.56 288.824L428.64 285.72ZM411.04 298.2L409.07 293.604C402.456 296.439 393.388 298 381.6 298V303V308C394.132 308 404.691 306.361 413.01 302.796L411.04 298.2ZM381.6 303V298H229.6V303V308H381.6V303ZM271.84 190.04V195.04H362.08V190.04V185.04H271.84V190.04ZM362.08 190.04L361.937 195.038C370.221 195.275 377.398 193.282 382.355 188.033L378.72 184.6L375.085 181.167C372.789 183.598 368.872 185.232 362.223 185.042L362.08 190.04ZM378.72 184.6L382.446 187.934C386.976 182.871 389.16 176.633 389.16 169.56H384.16H379.16C379.16 174.434 377.717 178.222 374.994 181.266L378.72 184.6ZM384.16 169.56H389.16V166.36H384.16H379.16V169.56H384.16ZM384.16 166.36H389.16C389.16 160.201 386.992 154.466 383.017 149.25L379.04 152.28L375.063 155.31C377.915 159.054 379.16 162.706 379.16 166.36H384.16ZM379.04 152.28L383.084 149.339C378.266 142.715 369.829 140.24 359.84 140.24V145.24V150.24C368.624 150.24 372.987 152.458 374.996 155.221L379.04 152.28ZM359.84 145.24V140.24H271.84V145.24V150.24H359.84V145.24ZM271.84 145.24H266.84V190.04H271.84H276.84V145.24H271.84ZM271.84 272.28V277.28H372.64V272.28V267.28H271.84V272.28ZM372.64 272.28V277.28C381.517 277.28 389.094 275.057 394.416 269.736L390.88 266.2L387.344 262.664C384.56 265.449 379.976 267.28 372.64 267.28V272.28ZM390.88 266.2L394.324 269.825C399.777 264.645 402.28 257.68 402.28 249.56H397.28H392.28C392.28 255.52 390.517 259.649 387.436 262.575L390.88 266.2ZM397.28 249.56H402.28V243.8H397.28H392.28V249.56H397.28ZM397.28 243.8H402.28C402.28 235.762 399.212 228.99 393.104 223.945L389.92 227.8L386.736 231.655C390.442 234.716 392.28 238.611 392.28 243.8H397.28ZM389.92 227.8L393.201 224.027C386.918 218.563 377.302 216.4 365.6 216.4V221.4V226.4C376.511 226.4 383.109 228.503 386.639 231.573L389.92 227.8ZM365.6 221.4V216.4H271.84V221.4V226.4H365.6V221.4ZM271.84 221.4H266.84V272.28H271.84H276.84V221.4H271.84ZM458.688 303L454.212 300.77L450.61 308H458.688V303ZM552.448 114.84V109.84H549.353L547.972 112.61L552.448 114.84ZM615.487 114.84L619.966 112.616L618.587 109.84H615.487V114.84ZM708.928 303V308H716.993L713.406 300.776L708.928 303ZM659.648 303L655.113 305.107L656.457 308H659.648V303ZM640.768 262.36L645.302 260.253L643.958 257.36H640.768V262.36ZM526.208 262.36V257.36H523.15L521.757 260.082L526.208 262.36ZM505.408 303V308H508.465L509.858 305.278L505.408 303ZM537.728 231L533.265 228.744L529.598 236H537.728V231ZM628.927 231V236H637.031L633.396 228.757L628.927 231ZM585.087 143.64L589.556 141.397L588.173 138.64H585.087V143.64ZM581.888 143.64V138.64H578.812L577.425 141.384L581.888 143.64ZM458.688 303L463.163 305.23L556.923 117.07L552.448 114.84L547.972 112.61L454.212 300.77L458.688 303ZM552.448 114.84V119.84H615.487V114.84V109.84H552.448V114.84ZM615.487 114.84L611.009 117.064L704.449 305.224L708.928 303L713.406 300.776L619.966 112.616L615.487 114.84ZM708.928 303V298H659.648V303V308H708.928V303ZM659.648 303L664.182 300.893L645.302 260.253L640.768 262.36L636.233 264.467L655.113 305.107L659.648 303ZM640.768 262.36V257.36H526.208V262.36V267.36H640.768V262.36ZM526.208 262.36L521.757 260.082L500.957 300.722L505.408 303L509.858 305.278L530.658 264.638L526.208 262.36ZM505.408 303V298H458.688V303V308H505.408V303ZM537.728 231V236H628.927V231V226H537.728V231ZM628.927 231L633.396 228.757L589.556 141.397L585.087 143.64L580.619 145.883L624.459 233.243L628.927 231ZM585.087 143.64V138.64H581.888V143.64V148.64H585.087V143.64ZM581.888 143.64L577.425 141.384L533.265 228.744L537.728 231L542.19 233.256L586.35 145.896L581.888 143.64ZM760.482 303L755.483 303.01L755.493 308H760.482V303ZM760.162 145.24L765.162 145.23L765.152 140.24H760.162V145.24ZM676.962 145.24H671.962V150.24H676.962V145.24ZM676.962 114.52V109.52H671.962V114.52H676.962ZM886.242 114.52H891.242V109.52H886.242V114.52ZM886.242 145.24V150.24H891.242V145.24H886.242ZM802.723 145.24V140.24H797.723V145.24H802.723ZM802.723 303V308H807.723V303H802.723ZM760.482 303L765.482 302.99L765.162 145.23L760.162 145.24L755.163 145.25L755.483 303.01L760.482 303ZM760.162 145.24V140.24H676.962V145.24V150.24H760.162V145.24ZM676.962 145.24H681.962V114.52H676.962H671.962V145.24H676.962ZM676.962 114.52V119.52H886.242V114.52V109.52H676.962V114.52ZM886.242 114.52H881.242V145.24H886.242H891.242V114.52H886.242ZM886.242 145.24V140.24H802.723V145.24V150.24H886.242V145.24ZM802.723 145.24H797.723V303H802.723H807.723V145.24H802.723ZM802.723 303V298H760.482V303V308H802.723V303ZM982.67 303L977.67 303.01L977.68 308H982.67V303ZM982.35 145.24L987.35 145.23L987.34 140.24H982.35V145.24ZM899.15 145.24H894.15V150.24H899.15V145.24ZM899.15 114.52V109.52H894.15V114.52H899.15ZM1108.43 114.52H1113.43V109.52H1108.43V114.52ZM1108.43 145.24V150.24H1113.43V145.24H1108.43ZM1024.91 145.24V140.24H1019.91V145.24H1024.91ZM1024.91 303V308H1029.91V303H1024.91ZM982.67 303L987.67 302.99L987.35 145.23L982.35 145.24L977.35 145.25L977.67 303.01L982.67 303ZM982.35 145.24V140.24H899.15V145.24V150.24H982.35V145.24ZM899.15 145.24H904.15V114.52H899.15H894.15V145.24H899.15ZM899.15 114.52V119.52H1108.43V114.52V109.52H899.15V114.52ZM1108.43 114.52H1103.43V145.24H1108.43H1113.43V114.52H1108.43ZM1108.43 145.24V140.24H1024.91V145.24V150.24H1108.43V145.24ZM1024.91 145.24H1019.91V303H1024.91H1029.91V145.24H1024.91ZM1024.91 303V298H982.67V303V308H1024.91V303ZM1140.54 303L1135.58 302.38L1134.87 308H1140.54V303ZM1143.74 277.4L1148.7 278.02L1148.74 277.711V277.4H1143.74ZM1143.74 114.84V109.84H1138.74V114.84H1143.74ZM1185.98 114.84H1190.98V109.84H1185.98V114.84ZM1185.98 272.28H1180.98V277.28H1185.98V272.28ZM1318.46 272.28L1322.98 270.151L1321.63 267.28H1318.46V272.28ZM1331.26 299.48H1336.26V298.362L1335.78 297.351L1331.26 299.48ZM1322.62 302.04L1323.17 307.009L1323.26 306.999L1323.35 306.986L1322.62 302.04ZM1140.54 303L1145.5 303.62L1148.7 278.02L1143.74 277.4L1138.78 276.78L1135.58 302.38L1140.54 303ZM1143.74 277.4H1148.74V114.84H1143.74H1138.74V277.4H1143.74ZM1143.74 114.84V119.84H1185.98V114.84V109.84H1143.74V114.84ZM1185.98 114.84H1180.98V272.28H1185.98H1190.98V114.84H1185.98ZM1185.98 272.28V277.28H1318.46V272.28V267.28H1185.98V272.28ZM1318.46 272.28L1313.93 274.409L1326.73 301.609L1331.26 299.48L1335.78 297.351L1322.98 270.151L1318.46 272.28ZM1331.26 299.48H1326.26C1326.26 298.083 1326.87 297.089 1327.3 296.576C1327.7 296.098 1328.08 295.869 1328.17 295.819C1328.34 295.718 1328.26 295.793 1327.68 295.966C1326.58 296.29 1324.71 296.676 1321.88 297.094L1322.62 302.04L1323.35 306.986C1326.29 306.551 1328.73 306.083 1330.52 305.554C1331.37 305.3 1332.38 304.948 1333.27 304.421C1333.75 304.134 1336.26 302.631 1336.26 299.48H1331.26ZM1322.62 302.04L1322.07 297.071C1316.61 297.677 1306.94 298 1292.86 298V303V308C1306.94 308 1317.11 307.683 1323.17 307.009L1322.62 302.04ZM1292.86 303V298H1140.54V303V308H1292.86V303ZM1359.91 303H1354.91V308H1359.91V303ZM1359.91 114.84V109.84H1354.91V114.84H1359.91ZM1558.95 114.84H1563.95V109.84H1558.95V114.84ZM1558.95 145.56V150.56H1563.95V145.56H1558.95ZM1402.15 145.56V140.56H1397.15V145.56H1402.15ZM1402.15 189.72H1397.15V194.72H1402.15V189.72ZM1521.83 189.72H1526.83V184.72H1521.83V189.72ZM1521.83 221.4V226.4H1526.83V221.4H1521.83ZM1402.15 221.4V216.4H1397.15V221.4H1402.15ZM1402.15 272.28H1397.15V277.28H1402.15V272.28ZM1560.23 272.28L1564.76 270.151L1563.41 267.28H1560.23V272.28ZM1573.03 299.48H1578.03V298.362L1577.56 297.351L1573.03 299.48ZM1564.39 302.04L1564.94 307.009L1565.04 306.999L1565.13 306.986L1564.39 302.04ZM1359.91 303H1364.91V114.84H1359.91H1354.91V303H1359.91ZM1359.91 114.84V119.84H1558.95V114.84V109.84H1359.91V114.84ZM1558.95 114.84H1553.95V145.56H1558.95H1563.95V114.84H1558.95ZM1558.95 145.56V140.56H1402.15V145.56V150.56H1558.95V145.56ZM1402.15 145.56H1397.15V189.72H1402.15H1407.15V145.56H1402.15ZM1402.15 189.72V194.72H1521.83V189.72V184.72H1402.15V189.72ZM1521.83 189.72H1516.83V221.4H1521.83H1526.83V189.72H1521.83ZM1521.83 221.4V216.4H1402.15V221.4V226.4H1521.83V221.4ZM1402.15 221.4H1397.15V272.28H1402.15H1407.15V221.4H1402.15ZM1402.15 272.28V277.28H1560.23V272.28V267.28H1402.15V272.28ZM1560.23 272.28L1555.71 274.409L1568.51 301.609L1573.03 299.48L1577.56 297.351L1564.76 270.151L1560.23 272.28ZM1573.03 299.48H1568.03C1568.03 298.083 1568.64 297.089 1569.08 296.576C1569.48 296.098 1569.86 295.869 1569.94 295.819C1570.11 295.718 1570.04 295.793 1569.45 295.966C1568.36 296.29 1566.48 296.676 1563.66 297.094L1564.39 302.04L1565.13 306.986C1568.06 306.551 1570.51 306.083 1572.29 305.554C1573.15 305.3 1574.15 304.948 1575.04 304.421C1575.53 304.134 1578.03 302.631 1578.03 299.48H1573.03ZM1564.39 302.04L1563.84 297.071C1558.39 297.677 1548.71 298 1534.63 298V303V308C1548.71 308 1558.88 307.683 1564.94 307.009L1564.39 302.04ZM1534.63 303V298H1359.91V303V308H1534.63V303ZM1608.75 301.08L1609.67 296.166V296.166L1608.75 301.08ZM1598.51 296.6L1593.97 294.511L1593.51 295.506V296.6H1598.51ZM1611.31 268.76L1612.17 263.834L1608.38 263.174L1606.77 266.671L1611.31 268.76ZM1647.79 271.32L1647.57 276.315L1647.6 276.316L1647.63 276.317L1647.79 271.32ZM1754.03 267.48L1757.23 271.321L1757.29 271.27L1757.35 271.217L1754.03 267.48ZM1754.99 228.12L1751.34 231.532L1751.4 231.595L1751.46 231.656L1754.99 228.12ZM1613.23 211.48L1610.05 215.335L1610.07 215.356L1610.1 215.376L1613.23 211.48ZM1603.63 141.08L1599.09 138.992L1599.07 139.044L1599.04 139.095L1603.63 141.08ZM1621.87 122.2L1624.28 126.581L1624.32 126.558L1624.36 126.535L1621.87 122.2ZM1779.31 117.08L1780.13 112.148V112.148L1779.31 117.08ZM1792.75 121.88L1797.62 123.038L1797.75 122.467V121.88H1792.75ZM1786.35 148.76L1785.78 153.727L1790.19 154.236L1791.22 149.918L1786.35 148.76ZM1748.59 146.84L1748.38 151.835L1748.4 151.836L1748.43 151.837L1748.59 146.84ZM1669.55 145.56L1669.1 150.539L1669.33 150.56H1669.55V145.56ZM1666.03 145.24L1666.49 140.261L1666.26 140.24H1666.03V145.24ZM1646.19 151.32L1649.93 154.642L1649.97 154.592L1650.02 154.541L1646.19 151.32ZM1640.75 166.04L1635.76 165.862L1635.75 165.951V166.04H1640.75ZM1646.51 187.48L1643.08 191.115L1643.18 191.213L1643.29 191.305L1646.51 187.48ZM1772.27 196.76L1773.66 191.956V191.956L1772.27 196.76ZM1794.35 212.12L1790.23 214.948L1790.25 214.976L1790.27 215.003L1794.35 212.12ZM1789.55 288.28L1785.74 285.047L1785.72 285.071L1785.7 285.096L1789.55 288.28ZM1640.75 303V298C1626.3 298 1616.02 297.355 1609.67 296.166L1608.75 301.08L1607.83 305.994C1615.14 307.365 1626.19 308 1640.75 308V303ZM1608.75 301.08L1609.67 296.166C1606.37 295.547 1604.26 294.936 1603.08 294.419C1602.47 294.155 1602.41 294.042 1602.57 294.192C1602.77 294.375 1603.51 295.192 1603.51 296.6H1598.51H1593.51C1593.51 298.861 1594.68 300.505 1595.73 301.488C1596.75 302.438 1597.96 303.098 1599.07 303.581C1601.3 304.558 1604.31 305.333 1607.83 305.994L1608.75 301.08ZM1598.51 296.6L1603.06 298.689L1615.86 270.849L1611.31 268.76L1606.77 266.671L1593.97 294.511L1598.51 296.6ZM1611.31 268.76L1610.46 273.686C1615.75 274.607 1628.27 275.467 1647.57 276.315L1647.79 271.32L1648.01 266.325C1628.48 265.466 1616.69 264.62 1612.17 263.834L1611.31 268.76ZM1647.79 271.32L1647.63 276.317C1667.34 276.96 1694.28 277.28 1728.43 277.28V272.28V267.28C1694.32 267.28 1667.5 266.96 1647.96 266.323L1647.79 271.32ZM1728.43 272.28V277.28H1734.51V272.28V267.28H1728.43V272.28ZM1734.51 272.28V277.28C1743.99 277.28 1752 275.681 1757.23 271.321L1754.03 267.48L1750.83 263.639C1748.38 265.679 1743.38 267.28 1734.51 267.28V272.28ZM1754.03 267.48L1757.35 271.217C1762.72 266.444 1764.79 259.078 1764.79 250.52H1759.79H1754.79C1754.79 257.749 1753.02 261.689 1750.71 263.743L1754.03 267.48ZM1759.79 250.52H1764.79V244.12H1759.79H1754.79V250.52H1759.79ZM1759.79 244.12H1764.79C1764.79 236.146 1763.12 229.175 1758.53 224.584L1754.99 228.12L1751.46 231.656C1753.27 233.465 1754.79 237.161 1754.79 244.12H1759.79ZM1754.99 228.12L1758.65 224.708C1756.18 222.069 1752.62 220.554 1748.77 219.652C1744.85 218.731 1740.05 218.32 1734.51 218.32V223.32V228.32C1739.64 228.32 1743.59 228.709 1746.49 229.388C1749.47 230.086 1750.81 230.971 1751.34 231.532L1754.99 228.12ZM1734.51 223.32V218.32H1660.27V223.32V228.32H1734.51V223.32ZM1660.27 223.32V218.32C1639.13 218.32 1624.85 214.409 1616.37 207.584L1613.23 211.48L1610.1 215.376C1621.24 224.338 1638.32 228.32 1660.27 228.32V223.32ZM1613.23 211.48L1616.42 207.625C1608.18 200.82 1603.51 189.421 1603.51 172.12H1598.51H1593.51C1593.51 191.086 1598.66 205.926 1610.05 215.335L1613.23 211.48ZM1598.51 172.12H1603.51V167H1598.51H1593.51V172.12H1598.51ZM1598.51 167H1603.51C1603.51 158.233 1605.1 150.276 1608.22 143.065L1603.63 141.08L1599.04 139.095C1595.33 147.671 1593.51 156.994 1593.51 167H1598.51ZM1603.63 141.08L1608.18 143.167C1611.3 136.364 1616.57 130.824 1624.28 126.581L1621.87 122.2L1619.46 117.819C1610.11 122.963 1603.22 130.009 1599.09 138.992L1603.63 141.08ZM1621.87 122.2L1624.36 126.535C1631.85 122.233 1642.6 119.84 1657.07 119.84V114.84V109.84C1641.68 109.84 1628.97 112.354 1619.38 117.865L1621.87 122.2ZM1657.07 114.84V119.84H1744.11V114.84V109.84H1657.07V114.84ZM1744.11 114.84V119.84C1758.49 119.84 1769.91 120.582 1778.49 122.012L1779.31 117.08L1780.13 112.148C1770.79 110.591 1758.75 109.84 1744.11 109.84V114.84ZM1779.31 117.08L1778.49 122.012C1782.89 122.745 1785.9 123.461 1787.71 124.109C1788.65 124.443 1788.96 124.654 1788.94 124.643C1788.92 124.626 1788.66 124.435 1788.38 124.018C1788.08 123.56 1787.75 122.823 1787.75 121.88H1792.75H1797.75C1797.75 119.075 1795.91 117.356 1794.88 116.597C1793.75 115.759 1792.38 115.157 1791.07 114.691C1788.41 113.739 1784.69 112.908 1780.13 112.148L1779.31 117.08ZM1792.75 121.88L1787.89 120.722L1781.49 147.602L1786.35 148.76L1791.22 149.918L1797.62 123.038L1792.75 121.88ZM1786.35 148.76L1786.93 143.793C1781.13 143.125 1768.32 142.481 1748.76 141.843L1748.59 146.84L1748.43 151.837C1768.11 152.479 1780.48 153.115 1785.78 153.727L1786.35 148.76ZM1748.59 146.84L1748.81 141.845C1729.08 140.987 1702.65 140.56 1669.55 140.56V145.56V150.56C1702.59 150.56 1728.85 150.986 1748.38 151.835L1748.59 146.84ZM1669.55 145.56L1670.01 140.581L1666.49 140.261L1666.03 145.24L1665.58 150.219L1669.1 150.539L1669.55 145.56ZM1666.03 145.24V140.24C1655.91 140.24 1647.29 142.259 1642.37 148.099L1646.19 151.32L1650.02 154.541C1651.93 152.275 1656.53 150.24 1666.03 150.24V145.24ZM1646.19 151.32L1642.46 147.998C1638.15 152.846 1636 158.925 1635.76 165.862L1640.75 166.04L1645.75 166.218C1645.93 161.208 1647.41 157.474 1649.93 154.642L1646.19 151.32ZM1640.75 166.04H1635.75V171.48H1640.75H1645.75V166.04H1640.75ZM1640.75 171.48H1635.75C1635.75 179.418 1637.94 186.26 1643.08 191.115L1646.51 187.48L1649.95 183.845C1647.41 181.447 1645.75 177.622 1645.75 171.48H1640.75ZM1646.51 187.48L1643.29 191.305C1648.7 195.862 1656.78 197.6 1666.35 197.6V192.6V187.6C1657.58 187.6 1652.43 185.924 1649.73 183.655L1646.51 187.48ZM1666.35 192.6V197.6H1737.39V192.6V187.6H1666.35V192.6ZM1737.39 192.6V197.6C1750.74 197.6 1761.87 198.958 1770.88 201.564L1772.27 196.76L1773.66 191.956C1763.48 189.015 1751.36 187.6 1737.39 187.6V192.6ZM1772.27 196.76L1770.88 201.564C1779.49 204.051 1785.83 208.537 1790.23 214.948L1794.35 212.12L1798.48 209.292C1792.63 200.769 1784.25 195.016 1773.66 191.956L1772.27 196.76ZM1794.35 212.12L1790.27 215.003C1794.53 221.04 1797.03 230.602 1797.03 244.44H1802.03H1807.03C1807.03 229.692 1804.42 217.707 1798.44 209.237L1794.35 212.12ZM1802.03 244.44H1797.03V249.56H1802.03H1807.03V244.44H1802.03ZM1802.03 249.56H1797.03C1797.03 264.674 1793.12 276.34 1785.74 285.047L1789.55 288.28L1793.37 291.513C1802.62 280.593 1807.03 266.446 1807.03 249.56H1802.03ZM1789.55 288.28L1785.7 285.096C1778.99 293.221 1766.65 298 1746.99 298V303V308C1767.87 308 1783.91 302.966 1793.41 291.464L1789.55 288.28ZM1746.99 303V298H1640.75V303V308H1746.99V303ZM1846.79 303H1841.79V308H1846.79V303ZM1846.79 114.84V109.84H1841.79V114.84H1846.79ZM1889.03 114.84H1894.03V109.84H1889.03V114.84ZM1889.03 192.92H1884.03V197.92H1889.03V192.92ZM2014.47 192.92V197.92H2019.47V192.92H2014.47ZM2014.47 114.84V109.84H2009.47V114.84H2014.47ZM2056.71 114.84H2061.71V109.84H2056.71V114.84ZM2056.71 303V308H2061.71V303H2056.71ZM2014.47 303H2009.47V308H2014.47V303ZM2014.47 223.64H2019.47V218.64H2014.47V223.64ZM1889.03 223.64V218.64H1884.03V223.64H1889.03ZM1889.03 303V308H1894.03V303H1889.03ZM1846.79 303H1851.79V114.84H1846.79H1841.79V303H1846.79ZM1846.79 114.84V119.84H1889.03V114.84V109.84H1846.79V114.84ZM1889.03 114.84H1884.03V192.92H1889.03H1894.03V114.84H1889.03ZM1889.03 192.92V197.92H2014.47V192.92V187.92H1889.03V192.92ZM2014.47 192.92H2019.47V114.84H2014.47H2009.47V192.92H2014.47ZM2014.47 114.84V119.84H2056.71V114.84V109.84H2014.47V114.84ZM2056.71 114.84H2051.71V303H2056.71H2061.71V114.84H2056.71ZM2056.71 303V298H2014.47V303V308H2056.71V303ZM2014.47 303H2019.47V223.64H2014.47H2009.47V303H2014.47ZM2014.47 223.64V218.64H1889.03V223.64V228.64H2014.47V223.64ZM1889.03 223.64H1884.03V303H1889.03H1894.03V223.64H1889.03ZM1889.03 303V298H1846.79V303V308H1889.03V303ZM2108.04 303H2103.04V308H2108.04V303ZM2108.04 114.84V109.84H2103.04V114.84H2108.04ZM2150.28 114.84H2155.28V109.84H2150.28V114.84ZM2150.28 303V308H2155.28V303H2150.28ZM2108.04 303H2113.04V114.84H2108.04H2103.04V303H2108.04ZM2108.04 114.84V119.84H2150.28V114.84V109.84H2108.04V114.84ZM2150.28 114.84H2145.28V303H2150.28H2155.28V114.84H2150.28ZM2150.28 303V298H2108.04V303V308H2150.28V303ZM2204.68 303H2199.68V308H2204.68V303ZM2204.68 140.44H2209.68V140.133L2209.64 139.827L2204.68 140.44ZM2201.47 114.52V109.52H2195.82L2196.51 115.133L2201.47 114.52ZM2375.24 119.96L2373.1 124.481L2373.12 124.492L2373.15 124.503L2375.24 119.96ZM2392.52 134.36L2388.24 136.955L2388.3 137.045L2388.35 137.133L2392.52 134.36ZM2399.24 207.32L2404.09 208.533L2404.09 208.513L2404.1 208.493L2399.24 207.32ZM2390.92 224.92L2394.95 227.87L2394.98 227.834L2395 227.797L2390.92 224.92ZM2373.31 239L2375.45 243.521L2375.5 243.497L2375.55 243.472L2373.31 239ZM2272.83 243.48L2272.56 248.472L2272.56 248.473L2272.83 243.48ZM2246.92 241.88L2247.28 236.894L2241.92 236.496V241.88H2246.92ZM2246.92 303V308H2251.92V303H2246.92ZM2246.92 213.72H2241.92V218.72H2246.92V213.72ZM2353.79 206.68L2357.75 209.737V209.737L2353.79 206.68ZM2353.79 152.28L2357.75 149.223V149.223L2353.79 152.28ZM2246.92 145.24V140.24H2241.92V145.24H2246.92ZM2204.68 303H2209.68V140.44H2204.68H2199.68V303H2204.68ZM2204.68 140.44L2209.64 139.827L2206.44 113.907L2201.47 114.52L2196.51 115.133L2199.71 141.053L2204.68 140.44ZM2201.47 114.52V119.52H2343.24V114.52V109.52H2201.47V114.52ZM2343.24 114.52V119.52C2356.55 119.52 2366.37 121.304 2373.1 124.481L2375.24 119.96L2377.37 115.439C2368.74 111.362 2357.23 109.52 2343.24 109.52V114.52ZM2375.24 119.96L2373.15 124.503C2380.36 127.815 2385.25 132.022 2388.24 136.955L2392.52 134.36L2396.79 131.765C2392.53 124.752 2385.9 119.358 2377.32 115.417L2375.24 119.96ZM2392.52 134.36L2388.35 137.133C2391.81 142.318 2393.99 147.834 2394.94 153.716L2399.88 152.92L2404.81 152.124C2403.63 144.78 2400.9 137.922 2396.68 131.587L2392.52 134.36ZM2399.88 152.92L2394.94 153.716C2395.97 160.097 2396.48 166.123 2396.48 171.8H2401.48H2406.48C2406.48 165.53 2405.92 158.969 2404.81 152.124L2399.88 152.92ZM2401.48 171.8H2396.48V190.68H2401.48H2406.48V171.8H2401.48ZM2401.48 190.68H2396.48C2396.48 195.095 2395.8 200.237 2394.37 206.147L2399.24 207.32L2404.1 208.493C2405.66 202.029 2406.48 196.078 2406.48 190.68H2401.48ZM2399.24 207.32L2394.38 206.107C2393.06 211.404 2390.58 216.714 2386.83 222.043L2390.92 224.92L2395 227.797C2399.36 221.606 2402.42 215.183 2404.09 208.533L2399.24 207.32ZM2390.92 224.92L2386.88 221.97C2383.4 226.732 2378.22 230.957 2371.08 234.528L2373.31 239L2375.55 243.472C2383.77 239.363 2390.33 234.201 2394.95 227.87L2390.92 224.92ZM2373.31 239L2371.18 234.479C2364.4 237.68 2355.18 239.44 2343.24 239.44V244.44V249.44C2356.04 249.44 2366.87 247.573 2375.45 243.521L2373.31 239ZM2343.24 244.44V239.44H2310.59V244.44V249.44H2343.24V244.44ZM2310.59 244.44V239.44C2297.23 239.44 2284.74 239.122 2273.11 238.487L2272.83 243.48L2272.56 248.473C2284.4 249.118 2297.08 249.44 2310.59 249.44V244.44ZM2272.83 243.48L2273.11 238.488C2261.6 237.848 2253 237.317 2247.28 236.894L2246.92 241.88L2246.55 246.866C2252.35 247.297 2261.03 247.832 2272.56 248.472L2272.83 243.48ZM2246.92 241.88H2241.92V303H2246.92H2251.92V241.88H2246.92ZM2246.92 303V298H2204.68V303V308H2246.92V303ZM2246.92 213.72V218.72H2333.96V213.72V208.72H2246.92V213.72ZM2333.96 213.72V218.72C2344.15 218.72 2352.72 216.253 2357.75 209.737L2353.79 206.68L2349.84 203.623C2347.62 206.493 2342.96 208.72 2333.96 208.72V213.72ZM2353.79 206.68L2357.75 209.737C2362.13 204.068 2364.24 197.306 2364.24 189.72H2359.24H2354.24C2354.24 195.361 2352.71 199.906 2349.84 203.623L2353.79 206.68ZM2359.24 189.72H2364.24V169.56H2359.24H2354.24V189.72H2359.24ZM2359.24 169.56H2364.24C2364.24 161.801 2362.15 154.92 2357.75 149.223L2353.79 152.28L2349.84 155.337C2352.69 159.026 2354.24 163.665 2354.24 169.56H2359.24ZM2353.79 152.28L2357.75 149.223C2352.73 142.73 2344.3 140.24 2334.27 140.24V145.24V150.24C2343.02 150.24 2347.6 152.443 2349.84 155.337L2353.79 152.28ZM2334.27 145.24V140.24H2246.92V145.24V150.24H2334.27V145.24ZM2246.92 145.24H2241.92V213.72H2246.92H2251.92V145.24H2246.92Z" fill="black" mask="url(#path-1-outside-1_3580_19)"/>
</g>
<path d="M99.5312 258.195C99.8958 257.831 100.169 257.375 100.352 256.828C100.716 256.099 100.898 255.552 100.898 255.188C100.898 250.995 98.3464 248.26 93.2422 246.984C88.3203 245.526 82.1224 244.888 74.6484 245.07C67.1745 245.07 59.0625 245.435 50.3125 246.164C41.7448 246.893 33.724 247.258 26.25 247.258C18.776 247.076 12.487 246.164 7.38281 244.523C2.46094 242.701 0 239.419 0 234.68C0 231.581 0.182292 229.302 0.546875 227.844C1.09375 226.203 1.82292 225.109 2.73438 224.562C3.64583 223.833 4.73958 223.469 6.01562 223.469C7.47396 223.286 9.02344 223.195 10.6641 223.195H17.7734C19.9609 223.378 23.5156 223.651 28.4375 224.016C33.3594 224.198 38.9193 224.471 45.1172 224.836C51.3151 225.018 57.7865 225.383 64.5312 225.93C71.4583 226.294 77.9297 226.659 83.9453 227.023C90.1432 227.388 95.612 227.753 100.352 228.117C105.273 228.482 109.01 228.755 111.562 228.938C114.844 230.943 117.578 232.766 119.766 234.406C122.135 236.047 123.958 237.688 125.234 239.328C126.693 240.969 127.695 242.792 128.242 244.797C128.971 246.62 129.336 248.99 129.336 251.906C129.336 258.104 128.06 264.211 125.508 270.227C122.956 276.06 119.674 281.984 115.664 288C111.836 293.833 107.37 299.758 102.266 305.773C97.3438 311.607 92.513 317.44 87.7734 323.273C83.0339 329.107 78.5677 334.94 74.375 340.773C70.1823 346.607 66.901 352.258 64.5312 357.727H134.805C140.091 357.727 143.464 358.729 144.922 360.734C146.38 362.74 147.109 365.565 147.109 369.211C147.109 371.763 146.836 374.133 146.289 376.32C145.742 378.508 143.828 380.148 140.547 381.242C131.797 381.971 122.956 383.065 114.023 384.523C105.091 385.982 96.1589 387.44 87.2266 388.898C78.2943 390.357 69.2708 391.633 60.1562 392.727C51.224 393.82 42.2917 394.367 33.3594 394.367C33.3594 381.242 35.3646 368.664 39.375 356.633C43.5677 344.419 48.8542 332.661 55.2344 321.359C61.7969 310.057 68.9062 299.12 76.5625 288.547C84.401 277.974 92.0573 267.857 99.5312 258.195ZM216.836 387.531C213.919 390.083 210.82 388.898 207.539 383.977C204.44 379.055 201.25 371.672 197.969 361.828C194.688 351.802 191.406 339.862 188.125 326.008C185.026 312.154 182.018 297.479 179.102 281.984C176.185 266.49 173.359 250.812 170.625 234.953C168.073 218.911 165.794 203.872 163.789 189.836C163.789 187.284 163.698 184.732 163.516 182.18C163.516 179.445 163.789 176.984 164.336 174.797C165.065 172.427 166.25 170.331 167.891 168.508C169.714 166.685 172.448 165.318 176.094 164.406C176.458 164.224 177.188 164.406 178.281 164.953C179.557 165.318 180.833 165.865 182.109 166.594C183.385 167.141 184.479 167.779 185.391 168.508C186.484 169.237 187.214 169.875 187.578 170.422C185.208 204.51 189.128 237.688 199.336 269.953C199.883 269.406 201.341 267.583 203.711 264.484C206.081 261.203 209.089 257.466 212.734 253.273C216.38 248.898 220.482 244.25 225.039 239.328C229.779 234.406 234.701 229.849 239.805 225.656C244.909 221.464 250.013 218 255.117 215.266C260.221 212.349 265.143 210.891 269.883 210.891C272.617 210.891 275.26 211.529 277.812 212.805C280.547 214.081 281.914 216.542 281.914 220.188C281.914 220.552 281.823 221.099 281.641 221.828C281.458 222.375 281.367 222.831 281.367 223.195C278.451 225.747 273.984 229.667 267.969 234.953C262.135 240.24 255.938 246.164 249.375 252.727C242.812 259.289 236.523 266.125 230.508 273.234C224.492 280.344 219.935 287.089 216.836 293.469C216.289 294.562 216.107 295.565 216.289 296.477C216.471 297.206 216.654 298.117 216.836 299.211C218.841 299.94 222.031 301.034 226.406 302.492C230.781 303.951 235.612 305.682 240.898 307.688C246.185 309.51 251.836 311.516 257.852 313.703C263.867 315.708 269.518 317.714 274.805 319.719C280.091 321.724 284.831 323.547 289.023 325.188C293.398 326.646 296.68 327.74 298.867 328.469C301.419 329.562 303.516 330.292 305.156 330.656C306.797 331.021 308.073 331.568 308.984 332.297C309.896 332.844 310.534 333.664 310.898 334.758C311.263 335.852 311.445 337.492 311.445 339.68C311.445 344.966 310.169 348.43 307.617 350.07C305.065 351.711 301.419 352.531 296.68 352.531C282.643 351.62 268.88 348.703 255.391 343.781C241.901 338.677 228.229 332.57 214.375 325.461C213.828 328.924 214.01 332.935 214.922 337.492C216.016 342.049 217.292 346.607 218.75 351.164C220.208 355.721 221.576 360.188 222.852 364.562C224.31 368.938 225.13 372.857 225.312 376.32C225.677 379.784 225.312 382.518 224.219 384.523C223.125 386.529 220.664 387.531 216.836 387.531Z" fill="#FF0000"/>
<g clip-path="url(#clip0_3580_19)">
<path d="M1212.43 474.008C1228.75 420.434 1285.34 390.277 1338.92 406.597C1345.24 408.521 1351.23 411.004 1356.86 413.977C1350.13 423.465 1342.44 434.633 1335.16 445.302C1332.83 444.274 1330.42 443.37 1327.92 442.609C1294.22 432.319 1258.56 451.302 1248.27 485.008C1247.11 488.814 1246.32 492.645 1245.89 496.462C1244.4 498.634 1243.2 500.935 1242.25 503.215L1242.22 503.286L1242.2 503.357C1241.16 506.008 1239.68 511.623 1238.81 516.704C1238.38 519.265 1238.03 522.066 1238.04 524.512C1238.04 525.709 1238.13 527.17 1238.51 528.605C1238.81 529.784 1239.66 532.336 1242.21 534.018L1242.21 534.023C1242.24 534.046 1242.28 534.066 1242.32 534.089C1242.34 534.103 1242.36 534.121 1242.38 534.135L1242.38 534.132C1244.86 535.707 1247.5 535.765 1249.52 535.289C1250.95 534.953 1252.17 534.342 1253.11 533.758C1260.82 548.104 1273.96 559.531 1290.67 564.659C1324.37 574.947 1360.03 555.967 1370.32 522.261C1374.98 506.998 1373.64 491.334 1367.64 477.808C1370.61 473.914 1373.66 469.901 1376.7 465.909C1382.14 458.765 1387.54 451.698 1392.44 445.427C1409.66 470.062 1415.78 502.077 1406.33 533.082C1390.01 586.657 1333.42 616.815 1279.85 600.494C1226.27 584.173 1196.11 527.583 1212.43 474.008Z" fill="white"/>
<path d="M1389.99 410.144C1389.63 409.789 1389.1 409.435 1388.74 408.902C1381.47 402.693 1373.13 403.048 1372.78 403.758C1359.12 421.853 1332.51 461.413 1319.91 480.04C1309.8 494.941 1300.58 511.262 1289.4 525.276C1286.21 529.179 1285.32 529.179 1283.01 524.212C1281.24 520.309 1280.35 515.874 1278.93 511.617C1276.09 503.101 1275.03 489.264 1262.61 492.28C1255.69 494.054 1251.43 499.553 1248.77 505.94C1247.18 510.02 1243.45 526.163 1246.29 527.937C1248.42 529.357 1252.14 525.276 1253.92 523.325C1256.4 520.664 1258 517.648 1260.48 514.987C1260.66 515.697 1261.01 516.584 1261.19 517.293C1262.08 522.083 1262.61 526.873 1264.03 531.485C1267.22 543.194 1278.22 551.177 1289.22 550.644C1293.66 550.29 1298.27 548.516 1302.35 544.968C1317.78 531.131 1330.02 513.213 1343.15 497.247C1356.99 480.572 1384.49 442.608 1398.68 426.11C1399.03 425.401 1398.32 418.127 1389.99 410.144Z" fill="white"/>
<path d="M1512.94 471.363C1505.75 467.464 1497.55 465.412 1488.52 465.412C1479.49 465.412 1471.28 467.464 1464.09 471.363C1457.12 475.263 1451.58 480.803 1447.47 487.781C1443.37 494.758 1441.52 502.762 1441.52 511.791C1441.52 520.821 1443.57 528.824 1447.68 535.802C1451.78 542.779 1457.32 548.115 1464.3 552.219C1471.28 556.118 1479.49 558.17 1488.93 558.17C1497.96 558.17 1506.16 556.118 1513.14 552.219C1520.12 548.32 1525.66 542.779 1529.77 535.802C1533.66 528.824 1535.72 520.821 1535.72 511.791C1535.72 502.762 1533.66 494.758 1529.77 487.781C1525.66 480.803 1520.12 475.263 1512.94 471.363ZM1504.73 522.668C1503.09 525.746 1501.03 528.209 1498.37 530.056C1495.7 531.903 1492.41 532.723 1488.72 532.723C1485.03 532.723 1481.54 531.903 1478.66 530.056C1475.79 528.209 1473.53 525.746 1471.89 522.668C1470.25 519.59 1469.43 515.896 1469.43 511.791C1469.43 507.687 1470.25 503.993 1471.89 500.915C1473.53 497.836 1475.79 495.374 1478.46 493.527C1481.33 491.68 1484.62 490.859 1488.11 490.859C1491.8 490.859 1495.08 491.68 1497.75 493.527C1500.62 495.374 1502.88 497.836 1504.32 500.915C1505.96 503.993 1506.78 507.687 1506.78 511.791C1507.19 515.896 1506.37 519.59 1504.73 522.668Z" fill="white"/>
<path d="M1623.96 470.953C1618.01 467.259 1610.83 465.412 1602.62 465.412C1595.23 465.412 1589.28 467.259 1584.15 470.953C1581.27 473.005 1579.02 475.673 1576.96 478.956L1575.94 467.67H1549.88V591.416H1577.37V545.447C1579.22 548.32 1581.48 550.577 1584.15 552.63C1589.07 556.323 1595.23 558.17 1602.62 558.17C1610.83 558.17 1618.01 556.323 1623.96 552.63C1629.91 548.936 1634.63 543.6 1637.71 536.623C1640.99 529.645 1642.43 521.436 1642.43 511.791C1642.43 502.146 1640.79 493.937 1637.71 486.96C1634.43 479.983 1629.91 474.852 1623.96 470.953ZM1611.24 522.668C1609.59 525.746 1607.34 528.414 1604.67 530.056C1602 531.903 1598.92 532.723 1595.23 532.723C1591.74 532.723 1588.66 531.903 1585.79 530.056C1583.12 528.209 1580.86 525.746 1579.43 522.668C1577.99 519.59 1577.17 515.896 1577.17 511.791C1577.17 507.687 1577.99 504.198 1579.43 500.915C1580.86 497.631 1583.12 495.169 1585.79 493.527C1588.46 491.68 1591.74 490.859 1595.23 490.859C1598.72 490.859 1602 491.68 1604.67 493.527C1607.34 495.374 1609.59 497.836 1611.03 500.915C1612.47 503.993 1613.29 507.687 1613.29 511.791C1613.7 515.896 1612.88 519.384 1611.24 522.668Z" fill="white"/>
<path d="M1730.88 470.953C1724.93 467.259 1717.75 465.412 1709.54 465.412C1702.15 465.412 1696.2 467.259 1691.07 470.953C1688.2 473.005 1685.94 475.673 1683.89 478.956L1682.86 467.67H1656.8V591.416H1684.3V545.447C1686.14 548.32 1688.4 550.577 1691.07 552.63C1695.99 556.323 1702.15 558.17 1709.54 558.17C1717.75 558.17 1724.93 556.323 1730.88 552.63C1736.83 548.936 1741.55 543.6 1744.63 536.623C1747.92 529.645 1749.35 521.436 1749.35 511.791C1749.35 502.146 1747.71 493.937 1744.63 486.96C1741.35 479.983 1736.83 474.852 1730.88 470.953ZM1718.36 522.668C1716.72 525.746 1714.46 528.414 1711.8 530.056C1709.13 531.903 1706.05 532.723 1702.36 532.723C1698.87 532.723 1695.79 531.903 1692.92 530.056C1690.25 528.209 1687.99 525.746 1686.55 522.668C1685.12 519.59 1684.3 515.896 1684.3 511.791C1684.3 507.687 1685.12 504.198 1686.55 500.915C1687.99 497.631 1690.25 495.169 1692.92 493.527C1695.58 491.68 1698.87 490.859 1702.36 490.859C1705.85 490.859 1709.13 491.68 1711.8 493.527C1714.46 495.374 1716.72 497.836 1718.16 500.915C1719.59 503.993 1720.42 507.687 1720.42 511.791C1720.83 515.896 1720.01 519.384 1718.36 522.668Z" fill="white"/>
<path d="M1778.29 425.189C1774.18 425.189 1770.49 426.626 1767.41 429.704C1764.33 432.782 1762.69 436.476 1762.69 440.786C1762.69 444.89 1764.33 448.584 1767.41 451.662C1770.49 454.741 1774.18 456.382 1778.29 456.382C1782.6 456.382 1786.09 454.741 1789.17 451.662C1792.24 448.584 1793.68 444.89 1793.68 440.786C1793.68 436.476 1792.24 432.782 1789.17 429.704C1786.09 426.626 1782.39 425.189 1778.29 425.189Z" fill="white"/>
<path d="M1791.83 467.669H1764.33V556.118H1791.83V467.669Z" fill="white"/>
<path d="M1885.42 484.908C1882.13 478.751 1877.41 474.031 1871.05 470.543C1864.69 467.054 1856.89 465.412 1847.66 465.412C1840.88 465.412 1834.93 466.438 1829.8 468.49C1824.67 470.543 1820.36 473.416 1817.08 476.904C1813.59 480.393 1810.92 484.292 1808.87 488.807L1833.08 496.81C1834.93 494.143 1836.98 492.09 1839.45 490.654C1841.91 489.217 1844.78 488.396 1848.27 488.396C1852.58 488.396 1855.66 489.423 1857.92 491.27C1860.17 493.116 1861.41 495.99 1862.23 499.478C1862.43 500.71 1862.64 501.941 1862.84 503.377H1841.5C1830.62 503.377 1822.21 505.635 1816.26 510.15C1810.3 514.664 1807.23 521.642 1807.23 530.876C1807.23 539.496 1810.1 546.063 1815.85 550.783C1821.59 555.503 1829.8 557.76 1840.27 557.76C1850.53 557.76 1858.12 554.476 1863.05 548.115C1863.25 547.704 1863.66 547.294 1863.87 546.883L1864.28 555.708H1890.14L1890.55 506.456C1890.34 498.247 1888.7 491.064 1885.42 484.908ZM1860.99 529.029C1859.56 531.492 1857.51 533.544 1855.04 534.981C1852.58 536.417 1849.5 537.238 1846.22 537.238C1842.73 537.238 1840.06 536.623 1838.01 535.391C1836.16 534.16 1835.14 532.518 1835.14 530.261C1835.14 527.388 1836.37 525.13 1839.04 523.489C1841.5 521.847 1845.81 521.026 1851.76 521.026H1863.25C1863.25 523.899 1862.43 526.567 1860.99 529.029Z" fill="white"/>
<path d="M1932 533.955H1907.38V558.581H1932V533.955Z" fill="white"/>
</g>
<path d="M581.15 456.1C587.55 456.1 593.2 457.4 598.1 460C603.1 462.5 607 466.4 609.8 471.7C612.7 476.9 614.15 483.6 614.15 491.8V538H590.75V495.4C590.75 488.9 589.4 484.1 586.7 481C584 477.9 580.2 476.35 575.3 476.35C571.9 476.35 568.85 477.15 566.15 478.75C563.45 480.25 561.35 482.55 559.85 485.65C558.35 488.75 557.6 492.7 557.6 497.5V538H534.2V495.4C534.2 488.9 532.85 484.1 530.15 481C527.55 477.9 523.8 476.35 518.9 476.35C515.5 476.35 512.45 477.15 509.75 478.75C507.05 480.25 504.95 482.55 503.45 485.65C501.95 488.75 501.2 492.7 501.2 497.5V538H477.8V457.3H500.15V479.35L495.95 472.9C498.75 467.4 502.7 463.25 507.8 460.45C513 457.55 518.9 456.1 525.5 456.1C532.9 456.1 539.35 458 544.85 461.8C550.45 465.5 554.15 471.2 555.95 478.9L547.7 476.65C550.4 470.35 554.7 465.35 560.6 461.65C566.6 457.95 573.45 456.1 581.15 456.1ZM684.624 538V522.25L683.124 518.8V490.6C683.124 485.6 681.574 481.7 678.474 478.9C675.474 476.1 670.824 474.7 664.524 474.7C660.224 474.7 655.974 475.4 651.774 476.8C647.674 478.1 644.174 479.9 641.274 482.2L632.874 465.85C637.274 462.75 642.574 460.35 648.774 458.65C654.974 456.95 661.274 456.1 667.674 456.1C679.974 456.1 689.524 459 696.324 464.8C703.124 470.6 706.524 479.65 706.524 491.95V538H684.624ZM660.024 539.2C653.724 539.2 648.324 538.15 643.824 536.05C639.324 533.85 635.874 530.9 633.474 527.2C631.074 523.5 629.874 519.35 629.874 514.75C629.874 509.95 631.024 505.75 633.324 502.15C635.724 498.55 639.474 495.75 644.574 493.75C649.674 491.65 656.324 490.6 664.524 490.6H685.974V504.25H667.074C661.574 504.25 657.774 505.15 655.674 506.95C653.674 508.75 652.674 511 652.674 513.7C652.674 516.7 653.824 519.1 656.124 520.9C658.524 522.6 661.774 523.45 665.874 523.45C669.774 523.45 673.274 522.55 676.374 520.75C679.474 518.85 681.724 516.1 683.124 512.5L686.724 523.3C685.024 528.5 681.924 532.45 677.424 535.15C672.924 537.85 667.124 539.2 660.024 539.2ZM762.938 539.2C755.338 539.2 748.488 537.5 742.388 534.1C736.288 530.6 731.438 525.75 727.838 519.55C724.338 513.35 722.588 506.05 722.588 497.65C722.588 489.15 724.338 481.8 727.838 475.6C731.438 469.4 736.288 464.6 742.388 461.2C748.488 457.8 755.338 456.1 762.938 456.1C769.738 456.1 775.688 457.6 780.788 460.6C785.888 463.6 789.838 468.15 792.638 474.25C795.438 480.35 796.838 488.15 796.838 497.65C796.838 507.05 795.488 514.85 792.788 521.05C790.088 527.15 786.188 531.7 781.088 534.7C776.088 537.7 770.038 539.2 762.938 539.2ZM766.988 520C770.788 520 774.238 519.1 777.338 517.3C780.438 515.5 782.888 512.95 784.688 509.65C786.588 506.25 787.538 502.25 787.538 497.65C787.538 492.95 786.588 488.95 784.688 485.65C782.888 482.35 780.438 479.8 777.338 478C774.238 476.2 770.788 475.3 766.988 475.3C763.088 475.3 759.588 476.2 756.488 478C753.388 479.8 750.888 482.35 748.988 485.65C747.188 488.95 746.288 492.95 746.288 497.65C746.288 502.25 747.188 506.25 748.988 509.65C750.888 512.95 753.388 515.5 756.488 517.3C759.588 519.1 763.088 520 766.988 520ZM788.138 538V521.5L788.588 497.5L787.088 473.65V426.7H810.488V538H788.138ZM872.196 539.2C862.996 539.2 854.896 537.4 847.896 533.8C840.996 530.2 835.646 525.3 831.846 519.1C828.046 512.8 826.146 505.65 826.146 497.65C826.146 489.55 827.996 482.4 831.696 476.2C835.496 469.9 840.646 465 847.146 461.5C853.646 457.9 860.996 456.1 869.196 456.1C877.096 456.1 884.196 457.8 890.496 461.2C896.896 464.5 901.946 469.3 905.646 475.6C909.346 481.8 911.196 489.25 911.196 497.95C911.196 498.85 911.146 499.9 911.046 501.1C910.946 502.2 910.846 503.25 910.746 504.25H845.196V490.6H898.446L889.446 494.65C889.446 490.45 888.596 486.8 886.896 483.7C885.196 480.6 882.846 478.2 879.846 476.5C876.846 474.7 873.346 473.8 869.346 473.8C865.346 473.8 861.796 474.7 858.696 476.5C855.696 478.2 853.346 480.65 851.646 483.85C849.946 486.95 849.096 490.65 849.096 494.95V498.55C849.096 502.95 850.046 506.85 851.946 510.25C853.946 513.55 856.696 516.1 860.196 517.9C863.796 519.6 867.996 520.45 872.796 520.45C877.096 520.45 880.846 519.8 884.046 518.5C887.346 517.2 890.346 515.25 893.046 512.65L905.496 526.15C901.796 530.35 897.146 533.6 891.546 535.9C885.946 538.1 879.496 539.2 872.196 539.2ZM1016.96 539.2C1009.86 539.2 1003.76 537.7 998.655 534.7C993.555 531.7 989.655 527.15 986.955 521.05C984.255 514.85 982.905 507.05 982.905 497.65C982.905 488.15 984.305 480.35 987.105 474.25C990.005 468.15 994.005 463.6 999.105 460.6C1004.21 457.6 1010.16 456.1 1016.96 456.1C1024.56 456.1 1031.36 457.8 1037.36 461.2C1043.46 464.6 1048.26 469.4 1051.76 475.6C1055.36 481.8 1057.16 489.15 1057.16 497.65C1057.16 506.05 1055.36 513.35 1051.76 519.55C1048.26 525.75 1043.46 530.6 1037.36 534.1C1031.36 537.5 1024.56 539.2 1016.96 539.2ZM969.255 538V426.7H992.655V473.65L991.155 497.5L991.605 521.5V538H969.255ZM1012.91 520C1016.81 520 1020.26 519.1 1023.26 517.3C1026.36 515.5 1028.81 512.95 1030.61 509.65C1032.51 506.25 1033.46 502.25 1033.46 497.65C1033.46 492.95 1032.51 488.95 1030.61 485.65C1028.81 482.35 1026.36 479.8 1023.26 478C1020.26 476.2 1016.81 475.3 1012.91 475.3C1009.01 475.3 1005.51 476.2 1002.41 478C999.305 479.8 996.855 482.35 995.055 485.65C993.255 488.95 992.355 492.95 992.355 497.65C992.355 502.25 993.255 506.25 995.055 509.65C996.855 512.95 999.305 515.5 1002.41 517.3C1005.51 519.1 1009.01 520 1012.91 520ZM1080.82 568.3C1076.62 568.3 1072.47 567.65 1068.37 566.35C1064.27 565.05 1060.92 563.25 1058.32 560.95L1066.87 544.3C1068.67 545.9 1070.72 547.15 1073.02 548.05C1075.42 548.95 1077.77 549.4 1080.07 549.4C1083.37 549.4 1085.97 548.6 1087.87 547C1089.87 545.5 1091.67 542.95 1093.27 539.35L1097.47 529.45L1099.27 526.9L1128.22 457.3H1150.72L1114.27 542.95C1111.67 549.45 1108.67 554.55 1105.27 558.25C1101.97 561.95 1098.27 564.55 1094.17 566.05C1090.17 567.55 1085.72 568.3 1080.82 568.3ZM1094.62 541.15L1058.62 457.3H1082.77L1110.67 524.8L1094.62 541.15Z" fill="white"/>
<defs>
<filter id="filter0_d_3580_19" x="124.602" y="13.52" width="2381.88" height="398.48" filterUnits="userSpaceOnUse" color-interpolation-filters="sRGB">
<feFlood flood-opacity="0" result="BackgroundImageFix"/>
<feColorMatrix in="SourceAlpha" type="matrix" values="0 0 0 0 0 0 0 0 0 0 0 0 0 0 0 0 0 0 127 0" result="hardAlpha"/>
<feOffset dy="4"/>
<feGaussianBlur stdDeviation="50"/>
<feComposite in2="hardAlpha" operator="out"/>
<feColorMatrix type="matrix" values="0 0 0 0 0 0 0 0 0 0 0 0 0 0 0 0 0 0 0.25 0"/>
<feBlend mode="normal" in2="BackgroundImageFix" result="effect1_dropShadow_3580_19"/>
<feBlend mode="normal" in="SourceGraphic" in2="effect1_dropShadow_3580_19" result="shape"/>
</filter>
<clipPath id="clip0_3580_19">
<rect width="724" height="236" fill="white" transform="translate(1208 393)"/>
</clipPath>
</defs>
</svg>
