<svg width="2120" height="618" viewBox="0 0 2120 618" fill="none" xmlns="http://www.w3.org/2000/svg">
<g clip-path="url(#clip0_3638_34)">
<path d="M1062.43 463.008C1078.75 409.434 1135.34 379.277 1188.92 395.597C1195.24 397.521 1201.23 400.004 1206.86 402.977C1200.13 412.465 1192.44 423.633 1185.16 434.302C1182.83 433.274 1180.42 432.37 1177.92 431.609C1144.22 421.319 1108.56 440.302 1098.27 474.008C1097.11 477.814 1096.32 481.645 1095.89 485.462C1094.4 487.634 1093.2 489.935 1092.25 492.215L1092.22 492.286L1092.2 492.357C1091.16 495.008 1089.68 500.623 1088.81 505.704C1088.38 508.265 1088.03 511.066 1088.04 513.512C1088.04 514.709 1088.13 516.17 1088.51 517.605C1088.81 518.784 1089.66 521.336 1092.21 523.018L1092.21 523.023C1092.24 523.046 1092.28 523.066 1092.32 523.089C1092.34 523.103 1092.36 523.121 1092.38 523.135L1092.38 523.132C1094.86 524.707 1097.5 524.765 1099.52 524.289C1100.95 523.953 1102.17 523.342 1103.11 522.758C1110.82 537.104 1123.96 548.531 1140.67 553.659C1174.37 563.947 1210.03 544.967 1220.32 511.261C1224.98 495.998 1223.64 480.334 1217.64 466.808C1220.61 462.913 1223.66 458.901 1226.7 454.909C1232.14 447.765 1237.54 440.698 1242.44 434.427C1259.66 459.062 1265.78 491.077 1256.33 522.082C1240.01 575.657 1183.42 605.815 1129.85 589.494C1076.27 573.173 1046.11 516.583 1062.43 463.008Z" fill="white"/>
<path d="M1239.99 399.144C1239.63 398.789 1239.1 398.435 1238.74 397.902C1231.47 391.693 1223.13 392.048 1222.78 392.758C1209.12 410.853 1182.51 450.413 1169.91 469.04C1159.8 483.941 1150.58 500.262 1139.4 514.276C1136.21 518.179 1135.32 518.179 1133.01 513.212C1131.24 509.309 1130.35 504.874 1128.93 500.617C1126.09 492.101 1125.03 478.264 1112.61 481.28C1105.69 483.054 1101.43 488.553 1098.77 494.94C1097.18 499.02 1093.45 515.163 1096.29 516.937C1098.42 518.357 1102.14 514.276 1103.92 512.325C1106.4 509.664 1108 506.648 1110.48 503.987C1110.66 504.697 1111.01 505.584 1111.19 506.293C1112.08 511.083 1112.61 515.873 1114.03 520.485C1117.22 532.193 1128.22 540.177 1139.22 539.644C1143.66 539.29 1148.27 537.516 1152.35 533.968C1167.78 520.131 1180.02 502.213 1193.15 486.247C1206.99 469.572 1234.49 431.608 1248.68 415.11C1249.03 414.401 1248.32 407.127 1239.99 399.144Z" fill="white"/>
<path d="M1362.94 460.363C1355.75 456.464 1347.55 454.412 1338.52 454.412C1329.49 454.412 1321.28 456.464 1314.09 460.363C1307.12 464.263 1301.58 469.803 1297.47 476.781C1293.37 483.758 1291.52 491.762 1291.52 500.791C1291.52 509.821 1293.57 517.824 1297.68 524.802C1301.78 531.779 1307.32 537.115 1314.3 541.219C1321.28 545.118 1329.49 547.17 1338.93 547.17C1347.96 547.17 1356.16 545.118 1363.14 541.219C1370.12 537.32 1375.66 531.779 1379.77 524.802C1383.66 517.824 1385.72 509.821 1385.72 500.791C1385.72 491.762 1383.66 483.758 1379.77 476.781C1375.66 469.803 1370.12 464.263 1362.94 460.363ZM1354.73 511.668C1353.09 514.746 1351.03 517.209 1348.37 519.056C1345.7 520.903 1342.41 521.723 1338.72 521.723C1335.03 521.723 1331.54 520.903 1328.66 519.056C1325.79 517.209 1323.53 514.746 1321.89 511.668C1320.25 508.59 1319.43 504.896 1319.43 500.791C1319.43 496.687 1320.25 492.993 1321.89 489.915C1323.53 486.836 1325.79 484.374 1328.46 482.527C1331.33 480.68 1334.62 479.859 1338.11 479.859C1341.8 479.859 1345.08 480.68 1347.75 482.527C1350.62 484.374 1352.88 486.836 1354.32 489.915C1355.96 492.993 1356.78 496.687 1356.78 500.791C1357.19 504.896 1356.37 508.59 1354.73 511.668Z" fill="white"/>
<path d="M1473.96 459.953C1468.01 456.259 1460.83 454.412 1452.62 454.412C1445.23 454.412 1439.28 456.259 1434.15 459.953C1431.27 462.005 1429.02 464.673 1426.96 467.956L1425.94 456.67H1399.88V580.416H1427.37V534.447C1429.22 537.32 1431.48 539.577 1434.15 541.63C1439.07 545.323 1445.23 547.17 1452.62 547.17C1460.83 547.17 1468.01 545.323 1473.96 541.63C1479.91 537.936 1484.63 532.6 1487.71 525.623C1490.99 518.645 1492.43 510.436 1492.43 500.791C1492.43 491.146 1490.79 482.937 1487.71 475.96C1484.43 468.983 1479.91 463.852 1473.96 459.953ZM1461.24 511.668C1459.59 514.746 1457.34 517.414 1454.67 519.056C1452 520.903 1448.92 521.723 1445.23 521.723C1441.74 521.723 1438.66 520.903 1435.79 519.056C1433.12 517.209 1430.86 514.746 1429.43 511.668C1427.99 508.59 1427.17 504.896 1427.17 500.791C1427.17 496.687 1427.99 493.198 1429.43 489.915C1430.86 486.631 1433.12 484.169 1435.79 482.527C1438.46 480.68 1441.74 479.859 1445.23 479.859C1448.72 479.859 1452 480.68 1454.67 482.527C1457.34 484.374 1459.59 486.836 1461.03 489.915C1462.47 492.993 1463.29 496.687 1463.29 500.791C1463.7 504.896 1462.88 508.384 1461.24 511.668Z" fill="white"/>
<path d="M1580.88 459.953C1574.93 456.259 1567.75 454.412 1559.54 454.412C1552.15 454.412 1546.2 456.259 1541.07 459.953C1538.2 462.005 1535.94 464.673 1533.89 467.956L1532.86 456.67H1506.8V580.416H1534.3V534.447C1536.14 537.32 1538.4 539.577 1541.07 541.63C1545.99 545.323 1552.15 547.17 1559.54 547.17C1567.75 547.17 1574.93 545.323 1580.88 541.63C1586.83 537.936 1591.55 532.6 1594.63 525.623C1597.92 518.645 1599.35 510.436 1599.35 500.791C1599.35 491.146 1597.71 482.937 1594.63 475.96C1591.35 468.983 1586.83 463.852 1580.88 459.953ZM1568.36 511.668C1566.72 514.746 1564.46 517.414 1561.8 519.056C1559.13 520.903 1556.05 521.723 1552.36 521.723C1548.87 521.723 1545.79 520.903 1542.92 519.056C1540.25 517.209 1537.99 514.746 1536.55 511.668C1535.12 508.59 1534.3 504.896 1534.3 500.791C1534.3 496.687 1535.12 493.198 1536.55 489.915C1537.99 486.631 1540.25 484.169 1542.92 482.527C1545.58 480.68 1548.87 479.859 1552.36 479.859C1555.85 479.859 1559.13 480.68 1561.8 482.527C1564.46 484.374 1566.72 486.836 1568.16 489.915C1569.59 492.993 1570.42 496.687 1570.42 500.791C1570.83 504.896 1570.01 508.384 1568.36 511.668Z" fill="white"/>
<path d="M1628.29 414.189C1624.18 414.189 1620.49 415.626 1617.41 418.704C1614.33 421.782 1612.69 425.476 1612.69 429.786C1612.69 433.89 1614.33 437.584 1617.41 440.662C1620.49 443.741 1624.18 445.382 1628.29 445.382C1632.6 445.382 1636.09 443.741 1639.17 440.662C1642.24 437.584 1643.68 433.89 1643.68 429.786C1643.68 425.476 1642.24 421.782 1639.17 418.704C1636.09 415.626 1632.39 414.189 1628.29 414.189Z" fill="white"/>
<path d="M1641.83 456.669H1614.33V545.118H1641.83V456.669Z" fill="white"/>
<path d="M1735.42 473.908C1732.13 467.751 1727.41 463.031 1721.05 459.543C1714.69 456.054 1706.89 454.412 1697.66 454.412C1690.88 454.412 1684.93 455.438 1679.8 457.49C1674.67 459.543 1670.36 462.416 1667.08 465.904C1663.59 469.393 1660.92 473.292 1658.87 477.807L1683.08 485.81C1684.93 483.143 1686.98 481.09 1689.45 479.654C1691.91 478.217 1694.78 477.396 1698.27 477.396C1702.58 477.396 1705.66 478.423 1707.92 480.27C1710.17 482.116 1711.41 484.99 1712.23 488.478C1712.43 489.71 1712.64 490.941 1712.84 492.377H1691.5C1680.62 492.377 1672.21 494.635 1666.26 499.15C1660.3 503.664 1657.23 510.642 1657.23 519.876C1657.23 528.496 1660.1 535.063 1665.85 539.783C1671.59 544.503 1679.8 546.76 1690.27 546.76C1700.53 546.76 1708.12 543.476 1713.05 537.115C1713.25 536.704 1713.66 536.294 1713.87 535.883L1714.28 544.708H1740.14L1740.55 495.456C1740.34 487.247 1738.7 480.064 1735.42 473.908ZM1710.99 518.029C1709.56 520.492 1707.51 522.544 1705.04 523.981C1702.58 525.417 1699.5 526.238 1696.22 526.238C1692.73 526.238 1690.06 525.623 1688.01 524.391C1686.16 523.16 1685.14 521.518 1685.14 519.261C1685.14 516.388 1686.37 514.13 1689.04 512.489C1691.5 510.847 1695.81 510.026 1701.76 510.026H1713.25C1713.25 512.899 1712.43 515.567 1710.99 518.029Z" fill="white"/>
<path d="M1782 522.955H1757.38V547.581H1782V522.955Z" fill="white"/>
</g>
<path d="M431.15 445.1C437.55 445.1 443.2 446.4 448.1 449C453.1 451.5 457 455.4 459.8 460.7C462.7 465.9 464.15 472.6 464.15 480.8V527H440.75V484.4C440.75 477.9 439.4 473.1 436.7 470C434 466.9 430.2 465.35 425.3 465.35C421.9 465.35 418.85 466.15 416.15 467.75C413.45 469.25 411.35 471.55 409.85 474.65C408.35 477.75 407.6 481.7 407.6 486.5V527H384.2V484.4C384.2 477.9 382.85 473.1 380.15 470C377.55 466.9 373.8 465.35 368.9 465.35C365.5 465.35 362.45 466.15 359.75 467.75C357.05 469.25 354.95 471.55 353.45 474.65C351.95 477.75 351.2 481.7 351.2 486.5V527H327.8V446.3H350.15V468.35L345.95 461.9C348.75 456.4 352.7 452.25 357.8 449.45C363 446.55 368.9 445.1 375.5 445.1C382.9 445.1 389.35 447 394.85 450.8C400.45 454.5 404.15 460.2 405.95 467.9L397.7 465.65C400.4 459.35 404.7 454.35 410.6 450.65C416.6 446.95 423.45 445.1 431.15 445.1ZM534.624 527V511.25L533.124 507.8V479.6C533.124 474.6 531.574 470.7 528.474 467.9C525.474 465.1 520.824 463.7 514.524 463.7C510.224 463.7 505.974 464.4 501.774 465.8C497.674 467.1 494.174 468.9 491.274 471.2L482.874 454.85C487.274 451.75 492.574 449.35 498.774 447.65C504.974 445.95 511.274 445.1 517.674 445.1C529.974 445.1 539.524 448 546.324 453.8C553.124 459.6 556.524 468.65 556.524 480.95V527H534.624ZM510.024 528.2C503.724 528.2 498.324 527.15 493.824 525.05C489.324 522.85 485.874 519.9 483.474 516.2C481.074 512.5 479.874 508.35 479.874 503.75C479.874 498.95 481.024 494.75 483.324 491.15C485.724 487.55 489.474 484.75 494.574 482.75C499.674 480.65 506.324 479.6 514.524 479.6H535.974V493.25H517.074C511.574 493.25 507.774 494.15 505.674 495.95C503.674 497.75 502.674 500 502.674 502.7C502.674 505.7 503.824 508.1 506.124 509.9C508.524 511.6 511.774 512.45 515.874 512.45C519.774 512.45 523.274 511.55 526.374 509.75C529.474 507.85 531.724 505.1 533.124 501.5L536.724 512.3C535.024 517.5 531.924 521.45 527.424 524.15C522.924 526.85 517.124 528.2 510.024 528.2ZM612.938 528.2C605.338 528.2 598.488 526.5 592.388 523.1C586.288 519.6 581.438 514.75 577.838 508.55C574.338 502.35 572.588 495.05 572.588 486.65C572.588 478.15 574.338 470.8 577.838 464.6C581.438 458.4 586.288 453.6 592.388 450.2C598.488 446.8 605.338 445.1 612.938 445.1C619.738 445.1 625.688 446.6 630.788 449.6C635.888 452.6 639.838 457.15 642.638 463.25C645.438 469.35 646.838 477.15 646.838 486.65C646.838 496.05 645.488 503.85 642.788 510.05C640.088 516.15 636.188 520.7 631.088 523.7C626.088 526.7 620.038 528.2 612.938 528.2ZM616.988 509C620.788 509 624.238 508.1 627.338 506.3C630.438 504.5 632.888 501.95 634.688 498.65C636.588 495.25 637.538 491.25 637.538 486.65C637.538 481.95 636.588 477.95 634.688 474.65C632.888 471.35 630.438 468.8 627.338 467C624.238 465.2 620.788 464.3 616.988 464.3C613.088 464.3 609.588 465.2 606.488 467C603.388 468.8 600.888 471.35 598.988 474.65C597.188 477.95 596.288 481.95 596.288 486.65C596.288 491.25 597.188 495.25 598.988 498.65C600.888 501.95 603.388 504.5 606.488 506.3C609.588 508.1 613.088 509 616.988 509ZM638.138 527V510.5L638.588 486.5L637.088 462.65V415.7H660.488V527H638.138ZM722.196 528.2C712.996 528.2 704.896 526.4 697.896 522.8C690.996 519.2 685.646 514.3 681.846 508.1C678.046 501.8 676.146 494.65 676.146 486.65C676.146 478.55 677.996 471.4 681.696 465.2C685.496 458.9 690.646 454 697.146 450.5C703.646 446.9 710.996 445.1 719.196 445.1C727.096 445.1 734.196 446.8 740.496 450.2C746.896 453.5 751.946 458.3 755.646 464.6C759.346 470.8 761.196 478.25 761.196 486.95C761.196 487.85 761.146 488.9 761.046 490.1C760.946 491.2 760.846 492.25 760.746 493.25H695.196V479.6H748.446L739.446 483.65C739.446 479.45 738.596 475.8 736.896 472.7C735.196 469.6 732.846 467.2 729.846 465.5C726.846 463.7 723.346 462.8 719.346 462.8C715.346 462.8 711.796 463.7 708.696 465.5C705.696 467.2 703.346 469.65 701.646 472.85C699.946 475.95 699.096 479.65 699.096 483.95V487.55C699.096 491.95 700.046 495.85 701.946 499.25C703.946 502.55 706.696 505.1 710.196 506.9C713.796 508.6 717.996 509.45 722.796 509.45C727.096 509.45 730.846 508.8 734.046 507.5C737.346 506.2 740.346 504.25 743.046 501.65L755.496 515.15C751.796 519.35 747.146 522.6 741.546 524.9C735.946 527.1 729.496 528.2 722.196 528.2ZM866.955 528.2C859.855 528.2 853.755 526.7 848.655 523.7C843.555 520.7 839.655 516.15 836.955 510.05C834.255 503.85 832.905 496.05 832.905 486.65C832.905 477.15 834.305 469.35 837.105 463.25C840.005 457.15 844.005 452.6 849.105 449.6C854.205 446.6 860.155 445.1 866.955 445.1C874.555 445.1 881.355 446.8 887.355 450.2C893.455 453.6 898.255 458.4 901.755 464.6C905.355 470.8 907.155 478.15 907.155 486.65C907.155 495.05 905.355 502.35 901.755 508.55C898.255 514.75 893.455 519.6 887.355 523.1C881.355 526.5 874.555 528.2 866.955 528.2ZM819.255 527V415.7H842.655V462.65L841.155 486.5L841.605 510.5V527H819.255ZM862.905 509C866.805 509 870.255 508.1 873.255 506.3C876.355 504.5 878.805 501.95 880.605 498.65C882.505 495.25 883.455 491.25 883.455 486.65C883.455 481.95 882.505 477.95 880.605 474.65C878.805 471.35 876.355 468.8 873.255 467C870.255 465.2 866.805 464.3 862.905 464.3C859.005 464.3 855.505 465.2 852.405 467C849.305 468.8 846.855 471.35 845.055 474.65C843.255 477.95 842.355 481.95 842.355 486.65C842.355 491.25 843.255 495.25 845.055 498.65C846.855 501.95 849.305 504.5 852.405 506.3C855.505 508.1 859.005 509 862.905 509ZM930.822 557.3C926.622 557.3 922.472 556.65 918.372 555.35C914.272 554.05 910.922 552.25 908.322 549.95L916.872 533.3C918.672 534.9 920.722 536.15 923.022 537.05C925.422 537.95 927.772 538.4 930.072 538.4C933.372 538.4 935.972 537.6 937.872 536C939.872 534.5 941.672 531.95 943.272 528.35L947.472 518.45L949.272 515.9L978.222 446.3H1000.72L964.272 531.95C961.672 538.45 958.672 543.55 955.272 547.25C951.972 550.95 948.272 553.55 944.172 555.05C940.172 556.55 935.722 557.3 930.822 557.3ZM944.622 530.15L908.622 446.3H932.772L960.672 513.8L944.622 530.15Z" fill="white"/>
<path d="M318.3 303L249.6 93H300L359.7 279H334.5L396.9 93H441.9L501.9 279H477.6L538.8 93H585.3L516.6 303H464.4L411.3 139.8H425.1L370.5 303H318.3ZM673.92 305.4C656.72 305.4 641.42 301.8 628.02 294.6C614.82 287.4 604.32 277.6 596.52 265.2C588.92 252.6 585.12 238.3 585.12 222.3C585.12 206.1 588.92 191.8 596.52 179.4C604.32 166.8 614.82 157 628.02 150C641.42 142.8 656.72 139.2 673.92 139.2C690.92 139.2 706.12 142.8 719.52 150C732.92 157 743.42 166.7 751.02 179.1C758.62 191.5 762.42 205.9 762.42 222.3C762.42 238.3 758.62 252.6 751.02 265.2C743.42 277.6 732.92 287.4 719.52 294.6C706.12 301.8 690.92 305.4 673.92 305.4ZM673.92 267C681.72 267 688.72 265.2 694.92 261.6C701.12 258 706.02 252.9 709.62 246.3C713.22 239.5 715.02 231.5 715.02 222.3C715.02 212.9 713.22 204.9 709.62 198.3C706.02 191.7 701.12 186.6 694.92 183C688.72 179.4 681.72 177.6 673.92 177.6C666.12 177.6 659.12 179.4 652.92 183C646.72 186.6 641.72 191.7 637.92 198.3C634.32 204.9 632.52 212.9 632.52 222.3C632.52 231.5 634.32 239.5 637.92 246.3C641.72 252.9 646.72 258 652.92 261.6C659.12 265.2 666.12 267 673.92 267ZM793.702 303V141.6H838.402V187.2L832.102 174C836.902 162.6 844.602 154 855.202 148.2C865.802 142.2 878.702 139.2 893.902 139.2V182.4C891.902 182.2 890.102 182.1 888.502 182.1C886.902 181.9 885.202 181.8 883.402 181.8C870.602 181.8 860.202 185.5 852.202 192.9C844.402 200.1 840.502 211.4 840.502 226.8V303H793.702ZM989.857 305.4C974.657 305.4 960.957 302 948.757 295.2C936.557 288.2 926.857 278.5 919.657 266.1C912.657 253.7 909.157 239.1 909.157 222.3C909.157 205.3 912.657 190.6 919.657 178.2C926.857 165.8 936.557 156.2 948.757 149.4C960.957 142.6 974.657 139.2 989.857 139.2C1003.46 139.2 1015.36 142.2 1025.56 148.2C1035.76 154.2 1043.66 163.3 1049.26 175.5C1054.86 187.7 1057.66 203.3 1057.66 222.3C1057.66 241.1 1054.96 256.7 1049.56 269.1C1044.16 281.3 1036.36 290.4 1026.16 296.4C1016.16 302.4 1004.06 305.4 989.857 305.4ZM997.957 267C1005.56 267 1012.46 265.2 1018.66 261.6C1024.86 258 1029.76 252.9 1033.36 246.3C1037.16 239.5 1039.06 231.5 1039.06 222.3C1039.06 212.9 1037.16 204.9 1033.36 198.3C1029.76 191.7 1024.86 186.6 1018.66 183C1012.46 179.4 1005.56 177.6 997.957 177.6C990.157 177.6 983.157 179.4 976.957 183C970.757 186.6 965.757 191.7 961.957 198.3C958.357 204.9 956.557 212.9 956.557 222.3C956.557 231.5 958.357 239.5 961.957 246.3C965.757 252.9 970.757 258 976.957 261.6C983.157 265.2 990.157 267 997.957 267ZM1040.26 303V270L1041.16 222L1038.16 174.3V80.4H1084.96V303H1040.26Z" fill="#42BB3D"/>
<path d="M1201.77 304.5C1186.17 304.5 1172.17 301.1 1159.77 294.3C1147.57 287.3 1137.97 277.8 1130.97 265.8C1123.97 253.6 1120.47 239.7 1120.47 224.1C1120.47 208.3 1123.97 194.4 1130.97 182.4C1137.97 170.4 1147.57 161 1159.77 154.2C1172.17 147.4 1186.17 144 1201.77 144C1215.17 144 1227.27 146.6 1238.07 151.8C1248.87 157 1257.37 164.8 1263.57 175.2L1247.67 186C1242.27 178 1235.57 172.1 1227.57 168.3C1219.57 164.5 1210.87 162.6 1201.47 162.6C1190.27 162.6 1180.17 165.2 1171.17 170.4C1162.17 175.4 1155.07 182.5 1149.87 191.7C1144.67 200.9 1142.07 211.7 1142.07 224.1C1142.07 236.5 1144.67 247.3 1149.87 256.5C1155.07 265.7 1162.17 272.9 1171.17 278.1C1180.17 283.1 1190.27 285.6 1201.47 285.6C1210.87 285.6 1219.57 283.7 1227.57 279.9C1235.57 276.1 1242.27 270.3 1247.67 262.5L1263.57 273.3C1257.37 283.5 1248.87 291.3 1238.07 296.7C1227.27 301.9 1215.17 304.5 1201.77 304.5ZM1383.47 144C1396.27 144 1407.47 146.5 1417.07 151.5C1426.87 156.3 1434.47 163.7 1439.87 173.7C1445.47 183.7 1448.27 196.3 1448.27 211.5V303H1426.97V213.6C1426.97 197 1422.77 184.5 1414.37 176.1C1406.17 167.5 1394.57 163.2 1379.57 163.2C1368.37 163.2 1358.57 165.5 1350.17 170.1C1341.97 174.5 1335.57 181 1330.97 189.6C1326.57 198 1324.37 208.2 1324.37 220.2V303H1303.07V80.4H1324.37V188.7L1320.17 180.6C1325.17 169.2 1333.17 160.3 1344.17 153.9C1355.17 147.3 1368.27 144 1383.47 144ZM1604.51 303V268.2L1603.61 262.5V204.3C1603.61 190.9 1599.81 180.6 1592.21 173.4C1584.81 166.2 1573.71 162.6 1558.91 162.6C1548.71 162.6 1539.01 164.3 1529.81 167.7C1520.61 171.1 1512.81 175.6 1506.41 181.2L1496.81 165.3C1504.81 158.5 1514.41 153.3 1525.61 149.7C1536.81 145.9 1548.61 144 1561.01 144C1581.41 144 1597.11 149.1 1608.11 159.3C1619.31 169.3 1624.91 184.6 1624.91 205.2V303H1604.51ZM1550.21 304.5C1538.41 304.5 1528.11 302.6 1519.31 298.8C1510.71 294.8 1504.11 289.4 1499.51 282.6C1494.91 275.6 1492.61 267.6 1492.61 258.6C1492.61 250.4 1494.51 243 1498.31 236.4C1502.31 229.6 1508.71 224.2 1517.51 220.2C1526.51 216 1538.51 213.9 1553.51 213.9H1607.81V229.8H1554.11C1538.91 229.8 1528.31 232.5 1522.31 237.9C1516.51 243.3 1513.61 250 1513.61 258C1513.61 267 1517.11 274.2 1524.11 279.6C1531.11 285 1540.91 287.7 1553.51 287.7C1565.51 287.7 1575.81 285 1584.41 279.6C1593.21 274 1599.61 266 1603.61 255.6L1608.41 270.3C1604.41 280.7 1597.41 289 1587.41 295.2C1577.61 301.4 1565.21 304.5 1550.21 304.5ZM1682.76 303V145.5H1704.06V303H1682.76ZM1693.56 110.7C1689.16 110.7 1685.46 109.2 1682.46 106.2C1679.46 103.2 1677.96 99.6 1677.96 95.4C1677.96 91.2 1679.46 87.7 1682.46 84.9C1685.46 81.9 1689.16 80.4 1693.56 80.4C1697.96 80.4 1701.66 81.8 1704.66 84.6C1707.66 87.4 1709.16 90.9 1709.16 95.1C1709.16 99.5 1707.66 103.2 1704.66 106.2C1701.86 109.2 1698.16 110.7 1693.56 110.7ZM1843.73 144C1856.53 144 1867.73 146.5 1877.33 151.5C1887.13 156.3 1894.73 163.7 1900.13 173.7C1905.73 183.7 1908.53 196.3 1908.53 211.5V303H1887.23V213.6C1887.23 197 1883.03 184.5 1874.63 176.1C1866.43 167.5 1854.83 163.2 1839.83 163.2C1828.63 163.2 1818.83 165.5 1810.43 170.1C1802.23 174.5 1795.83 181 1791.23 189.6C1786.83 198 1784.63 208.2 1784.63 220.2V303H1763.33V145.5H1783.73V188.7L1780.43 180.6C1785.43 169.2 1793.43 160.3 1804.43 153.9C1815.43 147.3 1828.53 144 1843.73 144Z" fill="#E4CC31"/>
<path d="M99.5312 258.195C99.8958 257.831 100.169 257.375 100.352 256.828C100.716 256.099 100.898 255.552 100.898 255.188C100.898 250.995 98.3464 248.26 93.2422 246.984C88.3203 245.526 82.1224 244.888 74.6484 245.07C67.1745 245.07 59.0625 245.435 50.3125 246.164C41.7448 246.893 33.724 247.258 26.25 247.258C18.776 247.076 12.487 246.164 7.38281 244.523C2.46094 242.701 0 239.419 0 234.68C0 231.581 0.182292 229.302 0.546875 227.844C1.09375 226.203 1.82292 225.109 2.73438 224.562C3.64583 223.833 4.73958 223.469 6.01562 223.469C7.47396 223.286 9.02344 223.195 10.6641 223.195H17.7734C19.9609 223.378 23.5156 223.651 28.4375 224.016C33.3594 224.198 38.9193 224.471 45.1172 224.836C51.3151 225.018 57.7865 225.383 64.5312 225.93C71.4583 226.294 77.9297 226.659 83.9453 227.023C90.1432 227.388 95.612 227.753 100.352 228.117C105.273 228.482 109.01 228.755 111.562 228.938C114.844 230.943 117.578 232.766 119.766 234.406C122.135 236.047 123.958 237.688 125.234 239.328C126.693 240.969 127.695 242.792 128.242 244.797C128.971 246.62 129.336 248.99 129.336 251.906C129.336 258.104 128.06 264.211 125.508 270.227C122.956 276.06 119.674 281.984 115.664 288C111.836 293.833 107.37 299.758 102.266 305.773C97.3438 311.607 92.513 317.44 87.7734 323.273C83.0339 329.107 78.5677 334.94 74.375 340.773C70.1823 346.607 66.901 352.258 64.5312 357.727H134.805C140.091 357.727 143.464 358.729 144.922 360.734C146.38 362.74 147.109 365.565 147.109 369.211C147.109 371.763 146.836 374.133 146.289 376.32C145.742 378.508 143.828 380.148 140.547 381.242C131.797 381.971 122.956 383.065 114.023 384.523C105.091 385.982 96.1589 387.44 87.2266 388.898C78.2943 390.357 69.2708 391.633 60.1562 392.727C51.224 393.82 42.2917 394.367 33.3594 394.367C33.3594 381.242 35.3646 368.664 39.375 356.633C43.5677 344.419 48.8542 332.661 55.2344 321.359C61.7969 310.057 68.9062 299.12 76.5625 288.547C84.401 277.974 92.0573 267.857 99.5312 258.195ZM216.836 387.531C213.919 390.083 210.82 388.898 207.539 383.977C204.44 379.055 201.25 371.672 197.969 361.828C194.688 351.802 191.406 339.862 188.125 326.008C185.026 312.154 182.018 297.479 179.102 281.984C176.185 266.49 173.359 250.812 170.625 234.953C168.073 218.911 165.794 203.872 163.789 189.836C163.789 187.284 163.698 184.732 163.516 182.18C163.516 179.445 163.789 176.984 164.336 174.797C165.065 172.427 166.25 170.331 167.891 168.508C169.714 166.685 172.448 165.318 176.094 164.406C176.458 164.224 177.188 164.406 178.281 164.953C179.557 165.318 180.833 165.865 182.109 166.594C183.385 167.141 184.479 167.779 185.391 168.508C186.484 169.237 187.214 169.875 187.578 170.422C185.208 204.51 189.128 237.688 199.336 269.953C199.883 269.406 201.341 267.583 203.711 264.484C206.081 261.203 209.089 257.466 212.734 253.273C216.38 248.898 220.482 244.25 225.039 239.328C229.779 234.406 234.701 229.849 239.805 225.656C244.909 221.464 250.013 218 255.117 215.266C260.221 212.349 265.143 210.891 269.883 210.891C272.617 210.891 275.26 211.529 277.812 212.805C280.547 214.081 281.914 216.542 281.914 220.188C281.914 220.552 281.823 221.099 281.641 221.828C281.458 222.375 281.367 222.831 281.367 223.195C278.451 225.747 273.984 229.667 267.969 234.953C262.135 240.24 255.938 246.164 249.375 252.727C242.812 259.289 236.523 266.125 230.508 273.234C224.492 280.344 219.935 287.089 216.836 293.469C216.289 294.562 216.107 295.565 216.289 296.477C216.471 297.206 216.654 298.117 216.836 299.211C218.841 299.94 222.031 301.034 226.406 302.492C230.781 303.951 235.612 305.682 240.898 307.688C246.185 309.51 251.836 311.516 257.852 313.703C263.867 315.708 269.518 317.714 274.805 319.719C280.091 321.724 284.831 323.547 289.023 325.188C293.398 326.646 296.68 327.74 298.867 328.469C301.419 329.562 303.516 330.292 305.156 330.656C306.797 331.021 308.073 331.568 308.984 332.297C309.896 332.844 310.534 333.664 310.898 334.758C311.263 335.852 311.445 337.492 311.445 339.68C311.445 344.966 310.169 348.43 307.617 350.07C305.065 351.711 301.419 352.531 296.68 352.531C282.643 351.62 268.88 348.703 255.391 343.781C241.901 338.677 228.229 332.57 214.375 325.461C213.828 328.924 214.01 332.935 214.922 337.492C216.016 342.049 217.292 346.607 218.75 351.164C220.208 355.721 221.576 360.188 222.852 364.562C224.31 368.938 225.13 372.857 225.312 376.32C225.677 379.784 225.312 382.518 224.219 384.523C223.125 386.529 220.664 387.531 216.836 387.531Z" fill="#FF0000"/>
<defs>
<clipPath id="clip0_3638_34">
<rect width="724" height="236" fill="white" transform="translate(1058 382)"/>
</clipPath>
</defs>
</svg>
